<?xml version="1.0" standalone="no"?>
 <!DOCTYPE svg PUBLIC "-//W3C//DTD SVG 1.1//EN" 
 "http://www.w3.org/Graphics/SVG/1.1/DTD/svg11.dtd"> 
<svg
  xmlns:svg="http://www.w3.org/2000/svg"
  xmlns="http://www.w3.org/2000/svg"
  xmlns:xlink="http://www.w3.org/1999/xlink"
  version="1.1"
  width="30.0990mm" height="18.0848mm" viewBox="0.0000 0.0000 30.0990 18.0848">
<title>SVG Image created as photoresistor-Edge_Cuts.svg date 2025/05/20 00:17:14 </title>
  <desc>Image generated by PCBNEW </desc>
<g style="fill:#000000; fill-opacity:1.0000;stroke:#000000; stroke-opacity:1.0000;
stroke-linecap:round; stroke-linejoin:round;"
 transform="translate(0 0) scale(1 1)">
<path style="fill:none; 
stroke:#D0D2CD; stroke-width:0.0500; stroke-opacity:1; 
stroke-linecap:round; stroke-linejoin:round;fill:none"
d="M 0.0500,0.0500
30.0500,0.0500
30.0500,18.0500
0.0500,18.0500
Z" /> 
<path style="fill:#4D7FC4; fill-opacity:1.0000; stroke:none;fill-rule:evenodd;"
d="M 26.9000,12.2800
26.9000,13.9800
25.2000,13.9800
25.2000,12.2800
Z" /> 
</g>
<g style="fill:#4D7FC4; fill-opacity:1.0000; stroke:none;">
<circle cx="26.0500" cy="10.5900" r="0.8500" /> 
</g>
<g style="fill:#4D7FC4; fill-opacity:1.0000; stroke:none;">
<circle cx="26.0500" cy="8.0500" r="0.8500" /> 
</g>
<g style="fill:#4D7FC4; fill-opacity:1.0000; stroke:none;">
<circle cx="26.0500" cy="5.5100" r="0.8500" /> 
</g>
<g style="fill:#4D7FC4; fill-opacity:1.0000; stroke:none;">
<circle cx="3.0500" cy="6.5500" r="0.8000" /> 
</g>
<g style="fill:#4D7FC4; fill-opacity:1.0000; stroke:none;">
<circle cx="3.0500" cy="9.5500" r="0.8000" /> 
<path style="fill:#4D7FC4; fill-opacity:1.0000; stroke:none;fill-rule:evenodd;"
d="M 16.5800,13.0800
16.5800,15.0800
14.5800,15.0800
14.5800,13.0800
Z" /> 
</g>
<g style="fill:#4D7FC4; fill-opacity:1.0000; stroke:none;">
<circle cx="13.0800" cy="9.0800" r="1.1000" /> 
</g>
<g style="fill:#4D7FC4; fill-opacity:1.0000; stroke:none;">
<circle cx="10.5800" cy="14.0800" r="1.1000" /> 
</g>
<g style="fill:#4D7FC4; fill-opacity:1.0000; stroke:none;">
<circle cx="12.9500" cy="3.2400" r="0.2500" /> 
</g>
<g style="fill:none; 
stroke:#4D7FC4; stroke-width:0.3000; stroke-opacity:1; 
stroke-linecap:round; stroke-linejoin:round;">
<path d="M3.0500 6.5500
L19.4700 6.5500
" />
<path d="M19.4700 6.5500
L26.0500 13.1300
" />
<path d="M18.7000 3.2400
L26.0500 10.5900
" />
<path d="M12.9500 3.2400
L18.7000 3.2400
" />
<path style="fill:#4D7FC4; fill-opacity:1.0000; stroke:none;fill-rule:evenodd;"
d="M 4.6346,6.7000
4.6346,6.4000
3.4945,5.8848
3.0490,6.5500
3.4945,7.2152
Z" /> 
<path style="fill:#4D7FC4; fill-opacity:1.0000; stroke:none;fill-rule:evenodd;"
d="M 24.7050,11.5729
24.4929,11.7850
25.2000,13.4821
26.0507,13.1307
26.4021,12.2800
Z" /> 
<path style="fill:#4D7FC4; fill-opacity:1.0000; stroke:none;fill-rule:evenodd;"
d="M 24.9655,9.2934
24.7534,9.5055
25.2163,10.7558
26.0507,10.5907
26.2158,9.7563
Z" /> 
<path style="fill:#4D7FC4; fill-opacity:1.0000; stroke:none;fill-rule:evenodd;"
d="M 13.4452,3.3900
13.4452,3.0900
12.9988,2.9948
12.9490,3.2400
12.9988,3.4852
Z" /> 
<path style="fill:#02FFEE; fill-opacity:0.4000; stroke:none;fill-rule:evenodd;"
d="M 26.9000,12.2800
26.9000,13.9800
25.2000,13.9800
25.2000,12.2800
Z" /> 
</g>
<g style="fill:#02FFEE; fill-opacity:0.4000; stroke:none;">
<circle cx="26.0500" cy="10.5900" r="0.8500" /> 
</g>
<g style="fill:#02FFEE; fill-opacity:0.4000; stroke:none;">
<circle cx="26.0500" cy="8.0500" r="0.8500" /> 
</g>
<g style="fill:#02FFEE; fill-opacity:0.4000; stroke:none;">
<circle cx="26.0500" cy="5.5100" r="0.8500" /> 
</g>
<g style="fill:#02FFEE; fill-opacity:0.4000; stroke:none;">
<circle cx="3.0500" cy="6.5500" r="0.8000" /> 
</g>
<g style="fill:#02FFEE; fill-opacity:0.4000; stroke:none;">
<circle cx="3.0500" cy="9.5500" r="0.8000" /> 
<path style="fill:#02FFEE; fill-opacity:0.4000; stroke:none;fill-rule:evenodd;"
d="M 16.5800,13.0800
16.5800,15.0800
14.5800,15.0800
14.5800,13.0800
Z" /> 
</g>
<g style="fill:#02FFEE; fill-opacity:0.4000; stroke:none;">
<circle cx="13.0800" cy="9.0800" r="1.1000" /> 
</g>
<g style="fill:#02FFEE; fill-opacity:0.4000; stroke:none;">
<circle cx="10.5800" cy="14.0800" r="1.1000" /> 
<path style="fill:#C83434; fill-opacity:1.0000; stroke:none;fill-rule:evenodd;"
d="M 7.6750,3.0250
7.7707,3.0440
7.8518,3.0982
7.9060,3.1793
7.9250,3.2750
7.9250,3.9000
7.9060,3.9957
7.8518,4.0768
7.7707,4.1310
7.6750,4.1500
6.4250,4.1500
6.3293,4.1310
6.2482,4.0768
6.1940,3.9957
6.1750,3.9000
6.1750,3.2750
6.1940,3.1793
6.2482,3.0982
6.3293,3.0440
6.4250,3.0250
Z" /> 
<path style="fill:#C83434; fill-opacity:1.0000; stroke:none;fill-rule:evenodd;"
d="M 7.6750,5.9500
7.7707,5.9690
7.8518,6.0232
7.9060,6.1043
7.9250,6.2000
7.9250,6.8250
7.9060,6.9207
7.8518,7.0018
7.7707,7.0560
7.6750,7.0750
6.4250,7.0750
6.3293,7.0560
6.2482,7.0018
6.1940,6.9207
6.1750,6.8250
6.1750,6.2000
6.1940,6.1043
6.2482,6.0232
6.3293,5.9690
6.4250,5.9500
Z" /> 
<path style="fill:#C83434; fill-opacity:1.0000; stroke:none;fill-rule:evenodd;"
d="M 19.7000,3.0000
19.7957,3.0190
19.8768,3.0732
19.9310,3.1543
19.9500,3.2500
19.9500,3.9000
19.9310,3.9957
19.8768,4.0768
19.7957,4.1310
19.7000,4.1500
18.4000,4.1500
18.3043,4.1310
18.2232,4.0768
18.1690,3.9957
18.1500,3.9000
18.1500,3.2500
18.1690,3.1543
18.2232,3.0732
18.3043,3.0190
18.4000,3.0000
Z" /> 
<path style="fill:#C83434; fill-opacity:1.0000; stroke:none;fill-rule:evenodd;"
d="M 19.7000,5.9500
19.7957,5.9690
19.8768,6.0232
19.9310,6.1043
19.9500,6.2000
19.9500,6.8500
19.9310,6.9457
19.8768,7.0268
19.7957,7.0810
19.7000,7.1000
18.4000,7.1000
18.3043,7.0810
18.2232,7.0268
18.1690,6.9457
18.1500,6.8500
18.1500,6.2000
18.1690,6.1043
18.2232,6.0232
18.3043,5.9690
18.4000,5.9500
Z" /> 
<path style="fill:#C83434; fill-opacity:1.0000; stroke:none;fill-rule:evenodd;"
d="M 7.7000,8.0000
7.7957,8.0190
7.8768,8.0732
7.9310,8.1543
7.9500,8.2500
7.9500,8.9000
7.9310,8.9957
7.8768,9.0768
7.7957,9.1310
7.7000,9.1500
6.4000,9.1500
6.3043,9.1310
6.2232,9.0768
6.1690,8.9957
6.1500,8.9000
6.1500,8.2500
6.1690,8.1543
6.2232,8.0732
6.3043,8.0190
6.4000,8.0000
Z" /> 
<path style="fill:#C83434; fill-opacity:1.0000; stroke:none;fill-rule:evenodd;"
d="M 7.7000,10.9500
7.7957,10.9690
7.8768,11.0232
7.9310,11.1043
7.9500,11.2000
7.9500,11.8500
7.9310,11.9457
7.8768,12.0268
7.7957,12.0810
7.7000,12.1000
6.4000,12.1000
6.3043,12.0810
6.2232,12.0268
6.1690,11.9457
6.1500,11.8500
6.1500,11.2000
6.1690,11.1043
6.2232,11.0232
6.3043,10.9690
6.4000,10.9500
Z" /> 
<path style="fill:#C83434; fill-opacity:1.0000; stroke:none;fill-rule:evenodd;"
d="M 9.5750,3.5400
9.5750,2.9400
11.1250,2.9400
11.1250,3.5400
Z" /> 
<path style="fill:#C83434; fill-opacity:1.0000; stroke:none;fill-rule:evenodd;"
d="M 9.5750,4.8100
9.5750,4.2100
11.1250,4.2100
11.1250,4.8100
Z" /> 
<path style="fill:#C83434; fill-opacity:1.0000; stroke:none;fill-rule:evenodd;"
d="M 9.5750,6.0800
9.5750,5.4800
11.1250,5.4800
11.1250,6.0800
Z" /> 
<path style="fill:#C83434; fill-opacity:1.0000; stroke:none;fill-rule:evenodd;"
d="M 9.5750,7.3500
9.5750,6.7500
11.1250,6.7500
11.1250,7.3500
Z" /> 
<path style="fill:#C83434; fill-opacity:1.0000; stroke:none;fill-rule:evenodd;"
d="M 14.9750,7.3500
14.9750,6.7500
16.5250,6.7500
16.5250,7.3500
Z" /> 
<path style="fill:#C83434; fill-opacity:1.0000; stroke:none;fill-rule:evenodd;"
d="M 14.9750,6.0800
14.9750,5.4800
16.5250,5.4800
16.5250,6.0800
Z" /> 
<path style="fill:#C83434; fill-opacity:1.0000; stroke:none;fill-rule:evenodd;"
d="M 14.9750,4.8100
14.9750,4.2100
16.5250,4.2100
16.5250,4.8100
Z" /> 
<path style="fill:#C83434; fill-opacity:1.0000; stroke:none;fill-rule:evenodd;"
d="M 14.9750,3.5400
14.9750,2.9400
16.5250,2.9400
16.5250,3.5400
Z" /> 
<path style="fill:#C83434; fill-opacity:1.0000; stroke:none;fill-rule:evenodd;"
d="M 22.6750,3.0250
22.7707,3.0440
22.8518,3.0982
22.9060,3.1793
22.9250,3.2750
22.9250,3.9000
22.9060,3.9957
22.8518,4.0768
22.7707,4.1310
22.6750,4.1500
21.4250,4.1500
21.3293,4.1310
21.2482,4.0768
21.1940,3.9957
21.1750,3.9000
21.1750,3.2750
21.1940,3.1793
21.2482,3.0982
21.3293,3.0440
21.4250,3.0250
Z" /> 
<path style="fill:#C83434; fill-opacity:1.0000; stroke:none;fill-rule:evenodd;"
d="M 22.6750,5.9500
22.7707,5.9690
22.8518,6.0232
22.9060,6.1043
22.9250,6.2000
22.9250,6.8250
22.9060,6.9207
22.8518,7.0018
22.7707,7.0560
22.6750,7.0750
21.4250,7.0750
21.3293,7.0560
21.2482,7.0018
21.1940,6.9207
21.1750,6.8250
21.1750,6.2000
21.1940,6.1043
21.2482,6.0232
21.3293,5.9690
21.4250,5.9500
Z" /> 
<path style="fill:#C83434; fill-opacity:1.0000; stroke:none;fill-rule:evenodd;"
d="M 26.9000,12.2800
26.9000,13.9800
25.2000,13.9800
25.2000,12.2800
Z" /> 
</g>
<g style="fill:#C83434; fill-opacity:1.0000; stroke:none;">
<circle cx="26.0500" cy="10.5900" r="0.8500" /> 
</g>
<g style="fill:#C83434; fill-opacity:1.0000; stroke:none;">
<circle cx="26.0500" cy="8.0500" r="0.8500" /> 
</g>
<g style="fill:#C83434; fill-opacity:1.0000; stroke:none;">
<circle cx="26.0500" cy="5.5100" r="0.8500" /> 
</g>
<g style="fill:#C83434; fill-opacity:1.0000; stroke:none;">
<circle cx="3.0500" cy="6.5500" r="0.8000" /> 
</g>
<g style="fill:#C83434; fill-opacity:1.0000; stroke:none;">
<circle cx="3.0500" cy="9.5500" r="0.8000" /> 
<path style="fill:#C83434; fill-opacity:1.0000; stroke:none;fill-rule:evenodd;"
d="M 16.5800,13.0800
16.5800,15.0800
14.5800,15.0800
14.5800,13.0800
Z" /> 
</g>
<g style="fill:#C83434; fill-opacity:1.0000; stroke:none;">
<circle cx="13.0800" cy="9.0800" r="1.1000" /> 
</g>
<g style="fill:#C83434; fill-opacity:1.0000; stroke:none;">
<circle cx="10.5800" cy="14.0800" r="1.1000" /> 
<path style="fill:#C83434; fill-opacity:1.0000; stroke:none;fill-rule:evenodd;"
d="M 21.4250,12.0750
21.3293,12.0560
21.2482,12.0018
21.1940,11.9207
21.1750,11.8250
21.1750,11.0750
21.1940,10.9793
21.2482,10.8982
21.3293,10.8440
21.4250,10.8250
22.6750,10.8250
22.7707,10.8440
22.8518,10.8982
22.9060,10.9793
22.9250,11.0750
22.9250,11.8250
22.9060,11.9207
22.8518,12.0018
22.7707,12.0560
22.6750,12.0750
Z" /> 
<path style="fill:#C83434; fill-opacity:1.0000; stroke:none;fill-rule:evenodd;"
d="M 21.4250,9.2750
21.3293,9.2560
21.2482,9.2018
21.1940,9.1207
21.1750,9.0250
21.1750,8.2750
21.1940,8.1793
21.2482,8.0982
21.3293,8.0440
21.4250,8.0250
22.6750,8.0250
22.7707,8.0440
22.8518,8.0982
22.9060,8.1793
22.9250,8.2750
22.9250,9.0250
22.9060,9.1207
22.8518,9.2018
22.7707,9.2560
22.6750,9.2750
Z" /> 
</g>
<g style="fill:#C83434; fill-opacity:1.0000; stroke:none;">
<circle cx="12.9500" cy="3.2400" r="0.2500" /> 
</g>
<g style="fill:none; 
stroke:#C83434; stroke-width:0.8000; stroke-opacity:1; 
stroke-linecap:round; stroke-linejoin:round;">
<path d="M19.0500 6.5250
L19.0500 8.4500
" />
<path d="M10.5800 14.0800
L12.5000 16.0000
" />
<path d="M12.5000 16.0000
L17.5000 16.0000
" />
</g>
<g style="fill:none; 
stroke:#C83434; stroke-width:0.5000; stroke-opacity:1; 
stroke-linecap:round; stroke-linejoin:round;">
<path d="M10.3500 8.2250
L10.3500 7.0500
" />
</g>
<g style="fill:none; 
stroke:#C83434; stroke-width:0.8000; stroke-opacity:1; 
stroke-linecap:round; stroke-linejoin:round;">
<path d="M5.0250 11.5250
L3.0500 9.5500
" />
<path d="M19.0500 8.4500
L22.0500 11.4500
" />
<path d="M17.5000 16.0000
L22.0500 11.4500
" />
<path d="M22.0500 11.4500
L22.6500 11.4500
" />
<path d="M9.6050 14.0800
L7.0500 11.5250
" />
<path d="M10.5800 14.0800
L9.6050 14.0800
" />
<path d="M7.0500 11.5250
L5.0250 11.5250
" />
<path d="M22.6500 11.4500
L26.0500 8.0500
" />
<path d="M10.3500 8.2250
L7.0500 11.5250
" />
</g>
<g style="fill:none; 
stroke:#C83434; stroke-width:0.3000; stroke-opacity:1; 
stroke-linecap:round; stroke-linejoin:round;">
<path d="M3.0875 6.5125
L3.0500 6.5500
" />
<path d="M7.0500 6.5125
L7.7825 5.7800
" />
<path d="M7.7825 5.7800
L10.3500 5.7800
" />
<path d="M7.0500 6.5125
L7.0500 8.5750
" />
<path d="M7.0500 6.5125
L3.0875 6.5125
" />
<path d="M10.3500 3.2400
L12.9500 3.2400
" />
</g>
<g style="fill:none; 
stroke:#C83434; stroke-width:0.8000; stroke-opacity:1; 
stroke-linecap:round; stroke-linejoin:round;">
<path d="M22.0500 8.6500
L22.0500 6.5125
" />
</g>
<g style="fill:none; 
stroke:#C83434; stroke-width:0.5000; stroke-opacity:1; 
stroke-linecap:round; stroke-linejoin:round;">
<path d="M10.3500 4.5100
L11.6675 4.5100
" />
<path d="M13.0800 5.9225
L13.0800 9.0800
" />
<path d="M11.6675 4.5100
L13.0800 5.9225
" />
<path d="M17.0500 3.2400
L18.7150 3.2400
" />
<path d="M8.5875 2.0500
L14.5600 2.0500
" />
<path d="M7.0500 3.5875
L8.5875 2.0500
" />
</g>
<g style="fill:none; 
stroke:#C83434; stroke-width:0.8000; stroke-opacity:1; 
stroke-linecap:round; stroke-linejoin:round;">
<path d="M19.0625 3.5875
L19.0500 3.5750
" />
</g>
<g style="fill:none; 
stroke:#C83434; stroke-width:0.5000; stroke-opacity:1; 
stroke-linecap:round; stroke-linejoin:round;">
<path d="M15.7500 3.2400
L17.0500 3.2400
" />
<path d="M17.3800 12.2800
L15.5800 14.0800
" />
</g>
<g style="fill:none; 
stroke:#C83434; stroke-width:0.8000; stroke-opacity:1; 
stroke-linecap:round; stroke-linejoin:round;">
<path d="M22.0500 3.5875
L19.0625 3.5875
" />
</g>
<g style="fill:none; 
stroke:#C83434; stroke-width:0.5000; stroke-opacity:1; 
stroke-linecap:round; stroke-linejoin:round;">
<path d="M18.7150 3.2400
L19.0500 3.5750
" />
<path d="M17.3800 3.2400
L17.3800 12.2800
" />
<path d="M14.5600 2.0500
L15.7500 3.2400
" />
</g>
<g style="fill:none; 
stroke:#C83434; stroke-width:0.8000; stroke-opacity:1; 
stroke-linecap:round; stroke-linejoin:round;">
<path d="M22.0500 3.5875
L24.1275 3.5875
" />
<path d="M24.1275 3.5875
L26.0500 5.5100
" />
<path style="fill:#C83434; fill-opacity:1.0000; stroke:none;fill-rule:evenodd;"
d="M 18.6500,7.6750
19.4500,7.6750
19.6250,7.1000
19.0500,6.5240
18.4750,7.1000
Z" /> 
<path style="fill:#C83434; fill-opacity:1.0000; stroke:none;fill-rule:evenodd;"
d="M 11.7671,15.8328
12.3328,15.2671
11.5735,13.6593
10.5793,14.0793
10.1593,15.0735
Z" /> 
<path style="fill:#C83434; fill-opacity:1.0000; stroke:none;fill-rule:evenodd;"
d="M 10.1000,7.6500
10.6000,7.6500
10.6500,7.3500
10.3500,7.0490
10.0500,7.3500
Z" /> 
<path style="fill:#C83434; fill-opacity:1.0000; stroke:none;fill-rule:evenodd;"
d="M 3.8877,10.9533
4.4533,10.3877
3.7152,9.1055
3.0493,9.5493
2.6055,10.2152
Z" /> 
<path style="fill:#C83434; fill-opacity:1.0000; stroke:none;fill-rule:evenodd;"
d="M 21.2659,10.1002
20.7002,10.6659
21.1750,11.4589
22.0507,11.4507
22.3089,10.8250
Z" /> 
<path style="fill:#C83434; fill-opacity:1.0000; stroke:none;fill-rule:evenodd;"
d="M 20.7002,12.2341
21.2659,12.7998
22.3089,12.0750
22.0507,11.4493
21.1750,11.4411
Z" /> 
<path style="fill:#C83434; fill-opacity:1.0000; stroke:none;fill-rule:evenodd;"
d="M 7.7487,12.7894
8.3144,12.2237
7.9500,11.6118
7.0493,11.5243
6.8118,12.1000
Z" /> 
<path style="fill:#C83434; fill-opacity:1.0000; stroke:none;fill-rule:evenodd;"
d="M 9.0769,12.9862
8.5112,13.5519
9.7975,14.8233
10.5807,14.0807
10.6221,13.0011
Z" /> 
<path style="fill:#C83434; fill-opacity:1.0000; stroke:none;fill-rule:evenodd;"
d="M 5.5750,11.1250
5.5750,11.9250
6.3043,12.0810
7.0510,11.5250
6.3043,10.9690
Z" /> 
<path style="fill:#C83434; fill-opacity:1.0000; stroke:none;fill-rule:evenodd;"
d="M 24.5766,8.9577
25.1423,9.5234
26.5222,8.7567
26.0507,8.0493
25.3433,7.5778
Z" /> 
<path style="fill:#C83434; fill-opacity:1.0000; stroke:none;fill-rule:evenodd;"
d="M 23.6498,11.0159
23.0841,10.4502
21.8914,10.8250
22.0493,11.4507
22.9250,11.6854
Z" /> 
<path style="fill:#C83434; fill-opacity:1.0000; stroke:none;fill-rule:evenodd;"
d="M 8.3144,10.8263
7.7487,10.2606
6.8118,10.9500
7.0493,11.5257
7.9500,11.4382
Z" /> 
<path style="fill:#C83434; fill-opacity:1.0000; stroke:none;fill-rule:evenodd;"
d="M 8.1046,5.9300
8.1046,5.6300
6.8729,5.9500
7.0490,6.5125
7.9250,6.5893
Z" /> 
<path style="fill:#C83434; fill-opacity:1.0000; stroke:none;fill-rule:evenodd;"
d="M 9.2750,5.6300
9.2750,5.9300
9.5750,6.0800
10.3510,5.7800
9.5750,5.4800
Z" /> 
<path style="fill:#C83434; fill-opacity:1.0000; stroke:none;fill-rule:evenodd;"
d="M 7.2000,7.4250
6.9000,7.4250
6.4750,8.0000
7.0500,8.5760
7.6250,8.0000
Z" /> 
<path style="fill:#C83434; fill-opacity:1.0000; stroke:none;fill-rule:evenodd;"
d="M 6.9000,7.6375
7.2000,7.6375
7.6125,7.0750
7.0500,6.5115
6.4875,7.0750
Z" /> 
<path style="fill:#C83434; fill-opacity:1.0000; stroke:none;fill-rule:evenodd;"
d="M 4.6346,6.6625
4.6346,6.3625
3.4945,5.8848
3.0490,6.5500
3.4945,7.2152
Z" /> 
<path style="fill:#C83434; fill-opacity:1.0000; stroke:none;fill-rule:evenodd;"
d="M 5.6125,6.3625
5.6125,6.6625
6.3293,7.0560
7.0510,6.5125
6.3293,5.9690
Z" /> 
<path style="fill:#C83434; fill-opacity:1.0000; stroke:none;fill-rule:evenodd;"
d="M 11.4250,3.3900
11.4250,3.0900
11.1250,2.9400
10.3490,3.2400
11.1250,3.5400
Z" /> 
<path style="fill:#C83434; fill-opacity:1.0000; stroke:none;fill-rule:evenodd;"
d="M 12.4548,3.0900
12.4548,3.3900
12.9012,3.4852
12.9510,3.2400
12.9012,2.9948
Z" /> 
<path style="fill:#C83434; fill-opacity:1.0000; stroke:none;fill-rule:evenodd;"
d="M 21.6500,7.6375
22.4500,7.6375
22.6125,7.0750
22.0500,6.5115
21.4875,7.0750
Z" /> 
<path style="fill:#C83434; fill-opacity:1.0000; stroke:none;fill-rule:evenodd;"
d="M 22.4500,7.4000
21.6500,7.4000
21.4250,8.0250
22.0500,8.6510
22.6750,8.0250
Z" /> 
<path style="fill:#C83434; fill-opacity:1.0000; stroke:none;fill-rule:evenodd;"
d="M 11.4250,4.7600
11.4250,4.2600
11.1250,4.2100
10.3490,4.5100
11.1250,4.8100
Z" /> 
<path style="fill:#C83434; fill-opacity:1.0000; stroke:none;fill-rule:evenodd;"
d="M 13.3300,7.0011
12.8300,7.0011
12.1654,8.4689
13.0800,9.0810
13.9946,8.4689
Z" /> 
<path style="fill:#C83434; fill-opacity:1.0000; stroke:none;fill-rule:evenodd;"
d="M 17.5770,2.9900
17.5770,3.4900
18.1625,3.9627
19.0510,3.5750
19.1155,3.0000
Z" /> 
<path style="fill:#C83434; fill-opacity:1.0000; stroke:none;fill-rule:evenodd;"
d="M 8.1870,2.8040
7.8335,2.4505
6.8170,3.0250
7.0493,3.5882
7.9250,3.5080
Z" /> 
<path style="fill:#C83434; fill-opacity:1.0000; stroke:none;fill-rule:evenodd;"
d="M 16.8250,3.4900
16.8250,2.9900
16.5250,2.9400
15.7490,3.2400
16.5250,3.5400
Z" /> 
<path style="fill:#C83434; fill-opacity:1.0000; stroke:none;fill-rule:evenodd;"
d="M 17.4639,12.5497
17.1103,12.1961
15.1658,13.0800
15.5793,14.0807
16.5800,14.4942
Z" /> 
<path style="fill:#C83434; fill-opacity:1.0000; stroke:none;fill-rule:evenodd;"
d="M 20.6125,3.1875
20.6125,3.9875
21.3293,4.1310
22.0510,3.5875
21.3293,3.0440
Z" /> 
<path style="fill:#C83434; fill-opacity:1.0000; stroke:none;fill-rule:evenodd;"
d="M 20.5250,3.9875
20.5250,3.1875
19.7957,3.0190
19.0490,3.5750
19.7000,4.1500
Z" /> 
<path style="fill:#C83434; fill-opacity:1.0000; stroke:none;fill-rule:evenodd;"
d="M 15.4146,2.5511
15.0611,2.9046
15.0257,2.9400
15.7507,3.2407
15.8743,2.9400
Z" /> 
<path style="fill:#C83434; fill-opacity:1.0000; stroke:none;fill-rule:evenodd;"
d="M 23.4875,3.9875
23.4875,3.1875
22.7707,3.0440
22.0490,3.5875
22.7707,4.1310
Z" /> 
<path style="fill:#C83434; fill-opacity:1.0000; stroke:none;fill-rule:evenodd;"
d="M 25.1423,4.0366
24.5766,4.6023
25.3433,5.9822
26.0507,5.5107
26.5222,4.8033
Z" /> 
<path style="fill:#C83434; fill-opacity:1.0000; stroke:none;fill-rule:evenodd;"
d="M 10.6000,7.4327
10.1000,7.4327
9.9577,8.1470
10.3500,8.2260
10.7423,8.1470
Z" /> 
<path style="fill:#D864FF; fill-opacity:0.4000; stroke:none;fill-rule:evenodd;"
d="M 7.6750,3.0250
7.7707,3.0440
7.8518,3.0982
7.9060,3.1793
7.9250,3.2750
7.9250,3.9000
7.9060,3.9957
7.8518,4.0768
7.7707,4.1310
7.6750,4.1500
6.4250,4.1500
6.3293,4.1310
6.2482,4.0768
6.1940,3.9957
6.1750,3.9000
6.1750,3.2750
6.1940,3.1793
6.2482,3.0982
6.3293,3.0440
6.4250,3.0250
Z" /> 
<path style="fill:#D864FF; fill-opacity:0.4000; stroke:none;fill-rule:evenodd;"
d="M 7.6750,5.9500
7.7707,5.9690
7.8518,6.0232
7.9060,6.1043
7.9250,6.2000
7.9250,6.8250
7.9060,6.9207
7.8518,7.0018
7.7707,7.0560
7.6750,7.0750
6.4250,7.0750
6.3293,7.0560
6.2482,7.0018
6.1940,6.9207
6.1750,6.8250
6.1750,6.2000
6.1940,6.1043
6.2482,6.0232
6.3293,5.9690
6.4250,5.9500
Z" /> 
<path style="fill:#D864FF; fill-opacity:0.4000; stroke:none;fill-rule:evenodd;"
d="M 19.7000,3.0000
19.7957,3.0190
19.8768,3.0732
19.9310,3.1543
19.9500,3.2500
19.9500,3.9000
19.9310,3.9957
19.8768,4.0768
19.7957,4.1310
19.7000,4.1500
18.4000,4.1500
18.3043,4.1310
18.2232,4.0768
18.1690,3.9957
18.1500,3.9000
18.1500,3.2500
18.1690,3.1543
18.2232,3.0732
18.3043,3.0190
18.4000,3.0000
Z" /> 
<path style="fill:#D864FF; fill-opacity:0.4000; stroke:none;fill-rule:evenodd;"
d="M 19.7000,5.9500
19.7957,5.9690
19.8768,6.0232
19.9310,6.1043
19.9500,6.2000
19.9500,6.8500
19.9310,6.9457
19.8768,7.0268
19.7957,7.0810
19.7000,7.1000
18.4000,7.1000
18.3043,7.0810
18.2232,7.0268
18.1690,6.9457
18.1500,6.8500
18.1500,6.2000
18.1690,6.1043
18.2232,6.0232
18.3043,5.9690
18.4000,5.9500
Z" /> 
<path style="fill:#D864FF; fill-opacity:0.4000; stroke:none;fill-rule:evenodd;"
d="M 7.7000,8.0000
7.7957,8.0190
7.8768,8.0732
7.9310,8.1543
7.9500,8.2500
7.9500,8.9000
7.9310,8.9957
7.8768,9.0768
7.7957,9.1310
7.7000,9.1500
6.4000,9.1500
6.3043,9.1310
6.2232,9.0768
6.1690,8.9957
6.1500,8.9000
6.1500,8.2500
6.1690,8.1543
6.2232,8.0732
6.3043,8.0190
6.4000,8.0000
Z" /> 
<path style="fill:#D864FF; fill-opacity:0.4000; stroke:none;fill-rule:evenodd;"
d="M 7.7000,10.9500
7.7957,10.9690
7.8768,11.0232
7.9310,11.1043
7.9500,11.2000
7.9500,11.8500
7.9310,11.9457
7.8768,12.0268
7.7957,12.0810
7.7000,12.1000
6.4000,12.1000
6.3043,12.0810
6.2232,12.0268
6.1690,11.9457
6.1500,11.8500
6.1500,11.2000
6.1690,11.1043
6.2232,11.0232
6.3043,10.9690
6.4000,10.9500
Z" /> 
<path style="fill:#D864FF; fill-opacity:0.4000; stroke:none;fill-rule:evenodd;"
d="M 9.5750,3.5400
9.5750,2.9400
11.1250,2.9400
11.1250,3.5400
Z" /> 
<path style="fill:#D864FF; fill-opacity:0.4000; stroke:none;fill-rule:evenodd;"
d="M 9.5750,4.8100
9.5750,4.2100
11.1250,4.2100
11.1250,4.8100
Z" /> 
<path style="fill:#D864FF; fill-opacity:0.4000; stroke:none;fill-rule:evenodd;"
d="M 9.5750,6.0800
9.5750,5.4800
11.1250,5.4800
11.1250,6.0800
Z" /> 
<path style="fill:#D864FF; fill-opacity:0.4000; stroke:none;fill-rule:evenodd;"
d="M 9.5750,7.3500
9.5750,6.7500
11.1250,6.7500
11.1250,7.3500
Z" /> 
<path style="fill:#D864FF; fill-opacity:0.4000; stroke:none;fill-rule:evenodd;"
d="M 14.9750,7.3500
14.9750,6.7500
16.5250,6.7500
16.5250,7.3500
Z" /> 
<path style="fill:#D864FF; fill-opacity:0.4000; stroke:none;fill-rule:evenodd;"
d="M 14.9750,6.0800
14.9750,5.4800
16.5250,5.4800
16.5250,6.0800
Z" /> 
<path style="fill:#D864FF; fill-opacity:0.4000; stroke:none;fill-rule:evenodd;"
d="M 14.9750,4.8100
14.9750,4.2100
16.5250,4.2100
16.5250,4.8100
Z" /> 
<path style="fill:#D864FF; fill-opacity:0.4000; stroke:none;fill-rule:evenodd;"
d="M 14.9750,3.5400
14.9750,2.9400
16.5250,2.9400
16.5250,3.5400
Z" /> 
<path style="fill:#D864FF; fill-opacity:0.4000; stroke:none;fill-rule:evenodd;"
d="M 22.6750,3.0250
22.7707,3.0440
22.8518,3.0982
22.9060,3.1793
22.9250,3.2750
22.9250,3.9000
22.9060,3.9957
22.8518,4.0768
22.7707,4.1310
22.6750,4.1500
21.4250,4.1500
21.3293,4.1310
21.2482,4.0768
21.1940,3.9957
21.1750,3.9000
21.1750,3.2750
21.1940,3.1793
21.2482,3.0982
21.3293,3.0440
21.4250,3.0250
Z" /> 
<path style="fill:#D864FF; fill-opacity:0.4000; stroke:none;fill-rule:evenodd;"
d="M 22.6750,5.9500
22.7707,5.9690
22.8518,6.0232
22.9060,6.1043
22.9250,6.2000
22.9250,6.8250
22.9060,6.9207
22.8518,7.0018
22.7707,7.0560
22.6750,7.0750
21.4250,7.0750
21.3293,7.0560
21.2482,7.0018
21.1940,6.9207
21.1750,6.8250
21.1750,6.2000
21.1940,6.1043
21.2482,6.0232
21.3293,5.9690
21.4250,5.9500
Z" /> 
<path style="fill:#D864FF; fill-opacity:0.4000; stroke:none;fill-rule:evenodd;"
d="M 26.9000,12.2800
26.9000,13.9800
25.2000,13.9800
25.2000,12.2800
Z" /> 
</g>
<g style="fill:#D864FF; fill-opacity:0.4000; stroke:none;">
<circle cx="26.0500" cy="10.5900" r="0.8500" /> 
</g>
<g style="fill:#D864FF; fill-opacity:0.4000; stroke:none;">
<circle cx="26.0500" cy="8.0500" r="0.8500" /> 
</g>
<g style="fill:#D864FF; fill-opacity:0.4000; stroke:none;">
<circle cx="26.0500" cy="5.5100" r="0.8500" /> 
</g>
<g style="fill:#D864FF; fill-opacity:0.4000; stroke:none;">
<circle cx="3.0500" cy="6.5500" r="0.8000" /> 
</g>
<g style="fill:#D864FF; fill-opacity:0.4000; stroke:none;">
<circle cx="3.0500" cy="9.5500" r="0.8000" /> 
<path style="fill:#D864FF; fill-opacity:0.4000; stroke:none;fill-rule:evenodd;"
d="M 16.5800,13.0800
16.5800,15.0800
14.5800,15.0800
14.5800,13.0800
Z" /> 
</g>
<g style="fill:#D864FF; fill-opacity:0.4000; stroke:none;">
<circle cx="13.0800" cy="9.0800" r="1.1000" /> 
</g>
<g style="fill:#D864FF; fill-opacity:0.4000; stroke:none;">
<circle cx="10.5800" cy="14.0800" r="1.1000" /> 
<path style="fill:#D864FF; fill-opacity:0.4000; stroke:none;fill-rule:evenodd;"
d="M 21.4250,12.0750
21.3293,12.0560
21.2482,12.0018
21.1940,11.9207
21.1750,11.8250
21.1750,11.0750
21.1940,10.9793
21.2482,10.8982
21.3293,10.8440
21.4250,10.8250
22.6750,10.8250
22.7707,10.8440
22.8518,10.8982
22.9060,10.9793
22.9250,11.0750
22.9250,11.8250
22.9060,11.9207
22.8518,12.0018
22.7707,12.0560
22.6750,12.0750
Z" /> 
<path style="fill:#D864FF; fill-opacity:0.4000; stroke:none;fill-rule:evenodd;"
d="M 21.4250,9.2750
21.3293,9.2560
21.2482,9.2018
21.1940,9.1207
21.1750,9.0250
21.1750,8.2750
21.1940,8.1793
21.2482,8.0982
21.3293,8.0440
21.4250,8.0250
22.6750,8.0250
22.7707,8.0440
22.8518,8.0982
22.9060,8.1793
22.9250,8.2750
22.9250,9.0250
22.9060,9.1207
22.8518,9.2018
22.7707,9.2560
22.6750,9.2750
Z" /> 
<path style="fill:#B4A09A; fill-opacity:0.9000; stroke:none;fill-rule:evenodd;"
d="M 7.6750,3.0250
7.7707,3.0440
7.8518,3.0982
7.9060,3.1793
7.9250,3.2750
7.9250,3.9000
7.9060,3.9957
7.8518,4.0768
7.7707,4.1310
7.6750,4.1500
6.4250,4.1500
6.3293,4.1310
6.2482,4.0768
6.1940,3.9957
6.1750,3.9000
6.1750,3.2750
6.1940,3.1793
6.2482,3.0982
6.3293,3.0440
6.4250,3.0250
Z" /> 
<path style="fill:#B4A09A; fill-opacity:0.9000; stroke:none;fill-rule:evenodd;"
d="M 7.6750,5.9500
7.7707,5.9690
7.8518,6.0232
7.9060,6.1043
7.9250,6.2000
7.9250,6.8250
7.9060,6.9207
7.8518,7.0018
7.7707,7.0560
7.6750,7.0750
6.4250,7.0750
6.3293,7.0560
6.2482,7.0018
6.1940,6.9207
6.1750,6.8250
6.1750,6.2000
6.1940,6.1043
6.2482,6.0232
6.3293,5.9690
6.4250,5.9500
Z" /> 
<path style="fill:#B4A09A; fill-opacity:0.9000; stroke:none;fill-rule:evenodd;"
d="M 19.7000,3.0000
19.7957,3.0190
19.8768,3.0732
19.9310,3.1543
19.9500,3.2500
19.9500,3.9000
19.9310,3.9957
19.8768,4.0768
19.7957,4.1310
19.7000,4.1500
18.4000,4.1500
18.3043,4.1310
18.2232,4.0768
18.1690,3.9957
18.1500,3.9000
18.1500,3.2500
18.1690,3.1543
18.2232,3.0732
18.3043,3.0190
18.4000,3.0000
Z" /> 
<path style="fill:#B4A09A; fill-opacity:0.9000; stroke:none;fill-rule:evenodd;"
d="M 19.7000,5.9500
19.7957,5.9690
19.8768,6.0232
19.9310,6.1043
19.9500,6.2000
19.9500,6.8500
19.9310,6.9457
19.8768,7.0268
19.7957,7.0810
19.7000,7.1000
18.4000,7.1000
18.3043,7.0810
18.2232,7.0268
18.1690,6.9457
18.1500,6.8500
18.1500,6.2000
18.1690,6.1043
18.2232,6.0232
18.3043,5.9690
18.4000,5.9500
Z" /> 
<path style="fill:#B4A09A; fill-opacity:0.9000; stroke:none;fill-rule:evenodd;"
d="M 7.7000,8.0000
7.7957,8.0190
7.8768,8.0732
7.9310,8.1543
7.9500,8.2500
7.9500,8.9000
7.9310,8.9957
7.8768,9.0768
7.7957,9.1310
7.7000,9.1500
6.4000,9.1500
6.3043,9.1310
6.2232,9.0768
6.1690,8.9957
6.1500,8.9000
6.1500,8.2500
6.1690,8.1543
6.2232,8.0732
6.3043,8.0190
6.4000,8.0000
Z" /> 
<path style="fill:#B4A09A; fill-opacity:0.9000; stroke:none;fill-rule:evenodd;"
d="M 7.7000,10.9500
7.7957,10.9690
7.8768,11.0232
7.9310,11.1043
7.9500,11.2000
7.9500,11.8500
7.9310,11.9457
7.8768,12.0268
7.7957,12.0810
7.7000,12.1000
6.4000,12.1000
6.3043,12.0810
6.2232,12.0268
6.1690,11.9457
6.1500,11.8500
6.1500,11.2000
6.1690,11.1043
6.2232,11.0232
6.3043,10.9690
6.4000,10.9500
Z" /> 
<path style="fill:#B4A09A; fill-opacity:0.9000; stroke:none;fill-rule:evenodd;"
d="M 9.5750,3.5400
9.5750,2.9400
11.1250,2.9400
11.1250,3.5400
Z" /> 
<path style="fill:#B4A09A; fill-opacity:0.9000; stroke:none;fill-rule:evenodd;"
d="M 9.5750,4.8100
9.5750,4.2100
11.1250,4.2100
11.1250,4.8100
Z" /> 
<path style="fill:#B4A09A; fill-opacity:0.9000; stroke:none;fill-rule:evenodd;"
d="M 9.5750,6.0800
9.5750,5.4800
11.1250,5.4800
11.1250,6.0800
Z" /> 
<path style="fill:#B4A09A; fill-opacity:0.9000; stroke:none;fill-rule:evenodd;"
d="M 9.5750,7.3500
9.5750,6.7500
11.1250,6.7500
11.1250,7.3500
Z" /> 
<path style="fill:#B4A09A; fill-opacity:0.9000; stroke:none;fill-rule:evenodd;"
d="M 14.9750,7.3500
14.9750,6.7500
16.5250,6.7500
16.5250,7.3500
Z" /> 
<path style="fill:#B4A09A; fill-opacity:0.9000; stroke:none;fill-rule:evenodd;"
d="M 14.9750,6.0800
14.9750,5.4800
16.5250,5.4800
16.5250,6.0800
Z" /> 
<path style="fill:#B4A09A; fill-opacity:0.9000; stroke:none;fill-rule:evenodd;"
d="M 14.9750,4.8100
14.9750,4.2100
16.5250,4.2100
16.5250,4.8100
Z" /> 
<path style="fill:#B4A09A; fill-opacity:0.9000; stroke:none;fill-rule:evenodd;"
d="M 14.9750,3.5400
14.9750,2.9400
16.5250,2.9400
16.5250,3.5400
Z" /> 
<path style="fill:#B4A09A; fill-opacity:0.9000; stroke:none;fill-rule:evenodd;"
d="M 22.6750,3.0250
22.7707,3.0440
22.8518,3.0982
22.9060,3.1793
22.9250,3.2750
22.9250,3.9000
22.9060,3.9957
22.8518,4.0768
22.7707,4.1310
22.6750,4.1500
21.4250,4.1500
21.3293,4.1310
21.2482,4.0768
21.1940,3.9957
21.1750,3.9000
21.1750,3.2750
21.1940,3.1793
21.2482,3.0982
21.3293,3.0440
21.4250,3.0250
Z" /> 
<path style="fill:#B4A09A; fill-opacity:0.9000; stroke:none;fill-rule:evenodd;"
d="M 22.6750,5.9500
22.7707,5.9690
22.8518,6.0232
22.9060,6.1043
22.9250,6.2000
22.9250,6.8250
22.9060,6.9207
22.8518,7.0018
22.7707,7.0560
22.6750,7.0750
21.4250,7.0750
21.3293,7.0560
21.2482,7.0018
21.1940,6.9207
21.1750,6.8250
21.1750,6.2000
21.1940,6.1043
21.2482,6.0232
21.3293,5.9690
21.4250,5.9500
Z" /> 
<path style="fill:#B4A09A; fill-opacity:0.9000; stroke:none;fill-rule:evenodd;"
d="M 21.4250,12.0750
21.3293,12.0560
21.2482,12.0018
21.1940,11.9207
21.1750,11.8250
21.1750,11.0750
21.1940,10.9793
21.2482,10.8982
21.3293,10.8440
21.4250,10.8250
22.6750,10.8250
22.7707,10.8440
22.8518,10.8982
22.9060,10.9793
22.9250,11.0750
22.9250,11.8250
22.9060,11.9207
22.8518,12.0018
22.7707,12.0560
22.6750,12.0750
Z" /> 
<path style="fill:#B4A09A; fill-opacity:0.9000; stroke:none;fill-rule:evenodd;"
d="M 21.4250,9.2750
21.3293,9.2560
21.2482,9.2018
21.1940,9.1207
21.1750,9.0250
21.1750,8.2750
21.1940,8.1793
21.2482,8.0982
21.3293,8.0440
21.4250,8.0250
22.6750,8.0250
22.7707,8.0440
22.8518,8.0982
22.9060,8.1793
22.9250,8.2750
22.9250,9.0250
22.9060,9.1207
22.8518,9.2018
22.7707,9.2560
22.6750,9.2750
Z" /> 
</g>
<g style="fill:none; 
stroke:#F2EDA1; stroke-width:0.1200; stroke-opacity:1; 
stroke-linecap:round; stroke-linejoin:round;">
<g transform="rotate(-90.000000 29.0500 6.0500)">
<text x="29.0500" y="6.0500"
textLength="2.1533" font-size="0.9333" lengthAdjust="spacingAndGlyphs"
text-anchor="start" opacity="0" stroke-opacity="0">36V</text>
</g>
<g class="stroked-text"><desc>36V</desc>
<path d="M28.2581 5.8711
L28.2581 5.4377
" />
<path d="M28.2581 5.4377
L28.5248 5.6711
" />
<path d="M28.5248 5.6711
L28.5248 5.5711
" />
<path d="M28.5248 5.5711
L28.5581 5.5044
" />
<path d="M28.5581 5.5044
L28.5914 5.4711
" />
<path d="M28.5914 5.4711
L28.6581 5.4377
" />
<path d="M28.6581 5.4377
L28.8248 5.4377
" />
<path d="M28.8248 5.4377
L28.8914 5.4711
" />
<path d="M28.8914 5.4711
L28.9248 5.5044
" />
<path d="M28.9248 5.5044
L28.9581 5.5711
" />
<path d="M28.9581 5.5711
L28.9581 5.7711
" />
<path d="M28.9581 5.7711
L28.9248 5.8377
" />
<path d="M28.9248 5.8377
L28.8914 5.8711
" />
<path d="M28.2581 4.8377
L28.2581 4.9711
" />
<path d="M28.2581 4.9711
L28.2914 5.0377
" />
<path d="M28.2914 5.0377
L28.3248 5.0711
" />
<path d="M28.3248 5.0711
L28.4248 5.1377
" />
<path d="M28.4248 5.1377
L28.5581 5.1711
" />
<path d="M28.5581 5.1711
L28.8248 5.1711
" />
<path d="M28.8248 5.1711
L28.8914 5.1377
" />
<path d="M28.8914 5.1377
L28.9248 5.1044
" />
<path d="M28.9248 5.1044
L28.9581 5.0377
" />
<path d="M28.9581 5.0377
L28.9581 4.9044
" />
<path d="M28.9581 4.9044
L28.9248 4.8377
" />
<path d="M28.9248 4.8377
L28.8914 4.8044
" />
<path d="M28.8914 4.8044
L28.8248 4.7711
" />
<path d="M28.8248 4.7711
L28.6581 4.7711
" />
<path d="M28.6581 4.7711
L28.5914 4.8044
" />
<path d="M28.5914 4.8044
L28.5581 4.8377
" />
<path d="M28.5581 4.8377
L28.5248 4.9044
" />
<path d="M28.5248 4.9044
L28.5248 5.0377
" />
<path d="M28.5248 5.0377
L28.5581 5.1044
" />
<path d="M28.5581 5.1044
L28.5914 5.1377
" />
<path d="M28.5914 5.1377
L28.6581 5.1711
" />
<path d="M28.2581 4.5711
L28.9581 4.3377
" />
<path d="M28.9581 4.3377
L28.2581 4.1044
" />
</g><g transform="rotate(-90.000000 29.0500 8.5900)">
<text x="29.0500" y="8.5900"
textLength="2.3533" font-size="0.9333" lengthAdjust="spacingAndGlyphs"
text-anchor="start" opacity="0" stroke-opacity="0">GND</text>
</g>
<g class="stroked-text"><desc>GND</desc>
<path d="M28.2914 7.9777
L28.2581 8.0444
" />
<path d="M28.2581 8.0444
L28.2581 8.1444
" />
<path d="M28.2581 8.1444
L28.2914 8.2444
" />
<path d="M28.2914 8.2444
L28.3581 8.3111
" />
<path d="M28.3581 8.3111
L28.4248 8.3444
" />
<path d="M28.4248 8.3444
L28.5581 8.3777
" />
<path d="M28.5581 8.3777
L28.6581 8.3777
" />
<path d="M28.6581 8.3777
L28.7914 8.3444
" />
<path d="M28.7914 8.3444
L28.8581 8.3111
" />
<path d="M28.8581 8.3111
L28.9248 8.2444
" />
<path d="M28.9248 8.2444
L28.9581 8.1444
" />
<path d="M28.9581 8.1444
L28.9581 8.0777
" />
<path d="M28.9581 8.0777
L28.9248 7.9777
" />
<path d="M28.9248 7.9777
L28.8914 7.9444
" />
<path d="M28.8914 7.9444
L28.6581 7.9444
" />
<path d="M28.6581 7.9444
L28.6581 8.0777
" />
<path d="M28.9581 7.6444
L28.2581 7.6444
" />
<path d="M28.2581 7.6444
L28.9581 7.2444
" />
<path d="M28.9581 7.2444
L28.2581 7.2444
" />
<path d="M28.9581 6.9111
L28.2581 6.9111
" />
<path d="M28.2581 6.9111
L28.2581 6.7444
" />
<path d="M28.2581 6.7444
L28.2914 6.6444
" />
<path d="M28.2914 6.6444
L28.3581 6.5777
" />
<path d="M28.3581 6.5777
L28.4248 6.5444
" />
<path d="M28.4248 6.5444
L28.5581 6.5111
" />
<path d="M28.5581 6.5111
L28.6581 6.5111
" />
<path d="M28.6581 6.5111
L28.7914 6.5444
" />
<path d="M28.7914 6.5444
L28.8581 6.5777
" />
<path d="M28.8581 6.5777
L28.9248 6.6444
" />
<path d="M28.9248 6.6444
L28.9581 6.7444
" />
<path d="M28.9581 6.7444
L28.9581 6.9111
" />
</g><g transform="rotate(-90.000000 29.0500 13.6700)">
<text x="29.0500" y="13.6700"
textLength="1.5533" font-size="0.9333" lengthAdjust="spacingAndGlyphs"
text-anchor="start" opacity="0" stroke-opacity="0">AO</text>
</g>
<g class="stroked-text"><desc>AO</desc>
<path d="M28.7581 13.4577
L28.7581 13.1244
" />
<path d="M28.9581 13.5244
L28.2581 13.2911
" />
<path d="M28.2581 13.2911
L28.9581 13.0577
" />
<path d="M28.2581 12.6911
L28.2581 12.5577
" />
<path d="M28.2581 12.5577
L28.2914 12.4911
" />
<path d="M28.2914 12.4911
L28.3581 12.4244
" />
<path d="M28.3581 12.4244
L28.4914 12.3911
" />
<path d="M28.4914 12.3911
L28.7248 12.3911
" />
<path d="M28.7248 12.3911
L28.8581 12.4244
" />
<path d="M28.8581 12.4244
L28.9248 12.4911
" />
<path d="M28.9248 12.4911
L28.9581 12.5577
" />
<path d="M28.9581 12.5577
L28.9581 12.6911
" />
<path d="M28.9581 12.6911
L28.9248 12.7577
" />
<path d="M28.9248 12.7577
L28.8581 12.8244
" />
<path d="M28.8581 12.8244
L28.7248 12.8577
" />
<path d="M28.7248 12.8577
L28.4914 12.8577
" />
<path d="M28.4914 12.8577
L28.3581 12.8244
" />
<path d="M28.3581 12.8244
L28.2914 12.7577
" />
<path d="M28.2914 12.7577
L28.2581 12.6911
" />
</g><g transform="rotate(-90.000000 29.0500 11.1300)">
<text x="29.0500" y="11.1300"
textLength="1.6533" font-size="0.9333" lengthAdjust="spacingAndGlyphs"
text-anchor="start" opacity="0" stroke-opacity="0">DO</text>
</g>
<g class="stroked-text"><desc>DO</desc>
<path d="M28.9581 10.8844
L28.2581 10.8844
" />
<path d="M28.2581 10.8844
L28.2581 10.7177
" />
<path d="M28.2581 10.7177
L28.2914 10.6177
" />
<path d="M28.2914 10.6177
L28.3581 10.5511
" />
<path d="M28.3581 10.5511
L28.4248 10.5177
" />
<path d="M28.4248 10.5177
L28.5581 10.4844
" />
<path d="M28.5581 10.4844
L28.6581 10.4844
" />
<path d="M28.6581 10.4844
L28.7914 10.5177
" />
<path d="M28.7914 10.5177
L28.8581 10.5511
" />
<path d="M28.8581 10.5511
L28.9248 10.6177
" />
<path d="M28.9248 10.6177
L28.9581 10.7177
" />
<path d="M28.9581 10.7177
L28.9581 10.8844
" />
<path d="M28.2581 10.0511
L28.2581 9.9177
" />
<path d="M28.2581 9.9177
L28.2914 9.8511
" />
<path d="M28.2914 9.8511
L28.3581 9.7844
" />
<path d="M28.3581 9.7844
L28.4914 9.7511
" />
<path d="M28.4914 9.7511
L28.7248 9.7511
" />
<path d="M28.7248 9.7511
L28.8581 9.7844
" />
<path d="M28.8581 9.7844
L28.9248 9.8511
" />
<path d="M28.9248 9.8511
L28.9581 9.9177
" />
<path d="M28.9581 9.9177
L28.9581 10.0511
" />
<path d="M28.9581 10.0511
L28.9248 10.1177
" />
<path d="M28.9248 10.1177
L28.8581 10.1844
" />
<path d="M28.8581 10.1844
L28.7248 10.2177
" />
<path d="M28.7248 10.2177
L28.4914 10.2177
" />
<path d="M28.4914 10.2177
L28.3581 10.1844
" />
<path d="M28.3581 10.1844
L28.2914 10.1177
" />
<path d="M28.2914 10.1177
L28.2581 10.0511
" />
</g><g transform="rotate(-90.000000 7.0500 5.0500)">
<text x="7.0500" y="5.4000"
textLength="1.5867" font-size="0.9333" lengthAdjust="spacingAndGlyphs"
text-anchor="middle" opacity="0" stroke-opacity="0">R2</text>
</g>
<g class="stroked-text"><desc>R2</desc>
<path d="M7.3676 5.1667
L7.0343 5.4000
" />
<path d="M7.3676 5.5667
L6.6676 5.5667
" />
<path d="M6.6676 5.5667
L6.6676 5.3000
" />
<path d="M6.6676 5.3000
L6.7009 5.2333
" />
<path d="M6.7009 5.2333
L6.7343 5.2000
" />
<path d="M6.7343 5.2000
L6.8009 5.1667
" />
<path d="M6.8009 5.1667
L6.9009 5.1667
" />
<path d="M6.9009 5.1667
L6.9676 5.2000
" />
<path d="M6.9676 5.2000
L7.0009 5.2333
" />
<path d="M7.0009 5.2333
L7.0343 5.3000
" />
<path d="M7.0343 5.3000
L7.0343 5.5667
" />
<path d="M6.7343 4.9000
L6.7009 4.8667
" />
<path d="M6.7009 4.8667
L6.6676 4.8000
" />
<path d="M6.6676 4.8000
L6.6676 4.6333
" />
<path d="M6.6676 4.6333
L6.7009 4.5667
" />
<path d="M6.7009 4.5667
L6.7343 4.5333
" />
<path d="M6.7343 4.5333
L6.8009 4.5000
" />
<path d="M6.8009 4.5000
L6.8676 4.5000
" />
<path d="M6.8676 4.5000
L6.9676 4.5333
" />
<path d="M6.9676 4.5333
L7.3676 4.9333
" />
<path d="M7.3676 4.9333
L7.3676 4.5000
" />
</g><text x="5.8500" y="2.4000"
textLength="2.9200" font-size="0.9333" lengthAdjust="spacingAndGlyphs"
text-anchor="middle" opacity="0" stroke-opacity="0">100K</text>
<g class="stroked-text"><desc>100K</desc>
<path d="M5.0333 2.3676
L4.6333 2.3676
" />
<path d="M4.8333 2.3676
L4.8333 1.6676
" />
<path d="M4.8333 1.6676
L4.7667 1.7676
" />
<path d="M4.7667 1.7676
L4.7000 1.8343
" />
<path d="M4.7000 1.8343
L4.6333 1.8676
" />
<path d="M5.4667 1.6676
L5.5333 1.6676
" />
<path d="M5.5333 1.6676
L5.6000 1.7009
" />
<path d="M5.6000 1.7009
L5.6333 1.7343
" />
<path d="M5.6333 1.7343
L5.6667 1.8009
" />
<path d="M5.6667 1.8009
L5.7000 1.9343
" />
<path d="M5.7000 1.9343
L5.7000 2.1009
" />
<path d="M5.7000 2.1009
L5.6667 2.2343
" />
<path d="M5.6667 2.2343
L5.6333 2.3009
" />
<path d="M5.6333 2.3009
L5.6000 2.3343
" />
<path d="M5.6000 2.3343
L5.5333 2.3676
" />
<path d="M5.5333 2.3676
L5.4667 2.3676
" />
<path d="M5.4667 2.3676
L5.4000 2.3343
" />
<path d="M5.4000 2.3343
L5.3667 2.3009
" />
<path d="M5.3667 2.3009
L5.3333 2.2343
" />
<path d="M5.3333 2.2343
L5.3000 2.1009
" />
<path d="M5.3000 2.1009
L5.3000 1.9343
" />
<path d="M5.3000 1.9343
L5.3333 1.8009
" />
<path d="M5.3333 1.8009
L5.3667 1.7343
" />
<path d="M5.3667 1.7343
L5.4000 1.7009
" />
<path d="M5.4000 1.7009
L5.4667 1.6676
" />
<path d="M6.1333 1.6676
L6.2000 1.6676
" />
<path d="M6.2000 1.6676
L6.2667 1.7009
" />
<path d="M6.2667 1.7009
L6.3000 1.7343
" />
<path d="M6.3000 1.7343
L6.3333 1.8009
" />
<path d="M6.3333 1.8009
L6.3667 1.9343
" />
<path d="M6.3667 1.9343
L6.3667 2.1009
" />
<path d="M6.3667 2.1009
L6.3333 2.2343
" />
<path d="M6.3333 2.2343
L6.3000 2.3009
" />
<path d="M6.3000 2.3009
L6.2667 2.3343
" />
<path d="M6.2667 2.3343
L6.2000 2.3676
" />
<path d="M6.2000 2.3676
L6.1333 2.3676
" />
<path d="M6.1333 2.3676
L6.0667 2.3343
" />
<path d="M6.0667 2.3343
L6.0333 2.3009
" />
<path d="M6.0333 2.3009
L6.0000 2.2343
" />
<path d="M6.0000 2.2343
L5.9667 2.1009
" />
<path d="M5.9667 2.1009
L5.9667 1.9343
" />
<path d="M5.9667 1.9343
L6.0000 1.8009
" />
<path d="M6.0000 1.8009
L6.0333 1.7343
" />
<path d="M6.0333 1.7343
L6.0667 1.7009
" />
<path d="M6.0667 1.7009
L6.1333 1.6676
" />
<path d="M6.6667 2.3676
L6.6667 1.6676
" />
<path d="M7.0667 2.3676
L6.7667 1.9676
" />
<path d="M7.0667 1.6676
L6.6667 2.0676
" />
</g><g transform="rotate(-90.000000 19.0500 5.0577)">
<text x="19.0500" y="5.4077"
textLength="1.5867" font-size="0.9333" lengthAdjust="spacingAndGlyphs"
text-anchor="middle" opacity="0" stroke-opacity="0">C1</text>
</g>
<g class="stroked-text"><desc>C1</desc>
<path d="M19.3009 5.1743
L19.3343 5.2077
" />
<path d="M19.3343 5.2077
L19.3676 5.3077
" />
<path d="M19.3676 5.3077
L19.3676 5.3743
" />
<path d="M19.3676 5.3743
L19.3343 5.4743
" />
<path d="M19.3343 5.4743
L19.2676 5.5410
" />
<path d="M19.2676 5.5410
L19.2009 5.5743
" />
<path d="M19.2009 5.5743
L19.0676 5.6077
" />
<path d="M19.0676 5.6077
L18.9676 5.6077
" />
<path d="M18.9676 5.6077
L18.8343 5.5743
" />
<path d="M18.8343 5.5743
L18.7676 5.5410
" />
<path d="M18.7676 5.5410
L18.7009 5.4743
" />
<path d="M18.7009 5.4743
L18.6676 5.3743
" />
<path d="M18.6676 5.3743
L18.6676 5.3077
" />
<path d="M18.6676 5.3077
L18.7009 5.2077
" />
<path d="M18.7009 5.2077
L18.7343 5.1743
" />
<path d="M19.3676 4.5077
L19.3676 4.9077
" />
<path d="M19.3676 4.7077
L18.6676 4.7077
" />
<path d="M18.6676 4.7077
L18.7676 4.7743
" />
<path d="M18.7676 4.7743
L18.8343 4.8410
" />
<path d="M18.8343 4.8410
L18.8676 4.9077
" />
</g><text x="19.0500" y="2.4000"
textLength="3.4533" font-size="0.9333" lengthAdjust="spacingAndGlyphs"
text-anchor="middle" opacity="0" stroke-opacity="0">100nF</text>
<g class="stroked-text"><desc>100nF</desc>
<path d="M17.9667 2.3676
L17.5667 2.3676
" />
<path d="M17.7667 2.3676
L17.7667 1.6676
" />
<path d="M17.7667 1.6676
L17.7000 1.7676
" />
<path d="M17.7000 1.7676
L17.6333 1.8343
" />
<path d="M17.6333 1.8343
L17.5667 1.8676
" />
<path d="M18.4000 1.6676
L18.4667 1.6676
" />
<path d="M18.4667 1.6676
L18.5333 1.7009
" />
<path d="M18.5333 1.7009
L18.5667 1.7343
" />
<path d="M18.5667 1.7343
L18.6000 1.8009
" />
<path d="M18.6000 1.8009
L18.6333 1.9343
" />
<path d="M18.6333 1.9343
L18.6333 2.1009
" />
<path d="M18.6333 2.1009
L18.6000 2.2343
" />
<path d="M18.6000 2.2343
L18.5667 2.3009
" />
<path d="M18.5667 2.3009
L18.5333 2.3343
" />
<path d="M18.5333 2.3343
L18.4667 2.3676
" />
<path d="M18.4667 2.3676
L18.4000 2.3676
" />
<path d="M18.4000 2.3676
L18.3333 2.3343
" />
<path d="M18.3333 2.3343
L18.3000 2.3009
" />
<path d="M18.3000 2.3009
L18.2667 2.2343
" />
<path d="M18.2667 2.2343
L18.2333 2.1009
" />
<path d="M18.2333 2.1009
L18.2333 1.9343
" />
<path d="M18.2333 1.9343
L18.2667 1.8009
" />
<path d="M18.2667 1.8009
L18.3000 1.7343
" />
<path d="M18.3000 1.7343
L18.3333 1.7009
" />
<path d="M18.3333 1.7009
L18.4000 1.6676
" />
<path d="M19.0667 1.6676
L19.1333 1.6676
" />
<path d="M19.1333 1.6676
L19.2000 1.7009
" />
<path d="M19.2000 1.7009
L19.2333 1.7343
" />
<path d="M19.2333 1.7343
L19.2667 1.8009
" />
<path d="M19.2667 1.8009
L19.3000 1.9343
" />
<path d="M19.3000 1.9343
L19.3000 2.1009
" />
<path d="M19.3000 2.1009
L19.2667 2.2343
" />
<path d="M19.2667 2.2343
L19.2333 2.3009
" />
<path d="M19.2333 2.3009
L19.2000 2.3343
" />
<path d="M19.2000 2.3343
L19.1333 2.3676
" />
<path d="M19.1333 2.3676
L19.0667 2.3676
" />
<path d="M19.0667 2.3676
L19.0000 2.3343
" />
<path d="M19.0000 2.3343
L18.9667 2.3009
" />
<path d="M18.9667 2.3009
L18.9333 2.2343
" />
<path d="M18.9333 2.2343
L18.9000 2.1009
" />
<path d="M18.9000 2.1009
L18.9000 1.9343
" />
<path d="M18.9000 1.9343
L18.9333 1.8009
" />
<path d="M18.9333 1.8009
L18.9667 1.7343
" />
<path d="M18.9667 1.7343
L19.0000 1.7009
" />
<path d="M19.0000 1.7009
L19.0667 1.6676
" />
<path d="M19.6000 1.9009
L19.6000 2.3676
" />
<path d="M19.6000 1.9676
L19.6333 1.9343
" />
<path d="M19.6333 1.9343
L19.7000 1.9009
" />
<path d="M19.7000 1.9009
L19.8000 1.9009
" />
<path d="M19.8000 1.9009
L19.8667 1.9343
" />
<path d="M19.8667 1.9343
L19.9000 2.0009
" />
<path d="M19.9000 2.0009
L19.9000 2.3676
" />
<path d="M20.4667 2.0009
L20.2333 2.0009
" />
<path d="M20.2333 2.3676
L20.2333 1.6676
" />
<path d="M20.2333 1.6676
L20.5667 1.6676
" />
</g><g transform="rotate(-90.000000 7.0500 10.0577)">
<text x="7.0500" y="10.4077"
textLength="1.5867" font-size="0.9333" lengthAdjust="spacingAndGlyphs"
text-anchor="middle" opacity="0" stroke-opacity="0">C2</text>
</g>
<g class="stroked-text"><desc>C2</desc>
<path d="M7.3009 10.1743
L7.3343 10.2077
" />
<path d="M7.3343 10.2077
L7.3676 10.3077
" />
<path d="M7.3676 10.3077
L7.3676 10.3743
" />
<path d="M7.3676 10.3743
L7.3343 10.4743
" />
<path d="M7.3343 10.4743
L7.2676 10.5410
" />
<path d="M7.2676 10.5410
L7.2009 10.5743
" />
<path d="M7.2009 10.5743
L7.0676 10.6077
" />
<path d="M7.0676 10.6077
L6.9676 10.6077
" />
<path d="M6.9676 10.6077
L6.8343 10.5743
" />
<path d="M6.8343 10.5743
L6.7676 10.5410
" />
<path d="M6.7676 10.5410
L6.7009 10.4743
" />
<path d="M6.7009 10.4743
L6.6676 10.3743
" />
<path d="M6.6676 10.3743
L6.6676 10.3077
" />
<path d="M6.6676 10.3077
L6.7009 10.2077
" />
<path d="M6.7009 10.2077
L6.7343 10.1743
" />
<path d="M6.7343 9.9077
L6.7009 9.8743
" />
<path d="M6.7009 9.8743
L6.6676 9.8077
" />
<path d="M6.6676 9.8077
L6.6676 9.6410
" />
<path d="M6.6676 9.6410
L6.7009 9.5743
" />
<path d="M6.7009 9.5743
L6.7343 9.5410
" />
<path d="M6.7343 9.5410
L6.8009 9.5077
" />
<path d="M6.8009 9.5077
L6.8676 9.5077
" />
<path d="M6.8676 9.5077
L6.9676 9.5410
" />
<path d="M6.9676 9.5410
L7.3676 9.9410
" />
<path d="M7.3676 9.9410
L7.3676 9.5077
" />
</g><text x="5.0500" y="14.4000"
textLength="3.4533" font-size="0.9333" lengthAdjust="spacingAndGlyphs"
text-anchor="middle" opacity="0" stroke-opacity="0">100nF</text>
<g class="stroked-text"><desc>100nF</desc>
<path d="M3.9667 14.3676
L3.5667 14.3676
" />
<path d="M3.7667 14.3676
L3.7667 13.6676
" />
<path d="M3.7667 13.6676
L3.7000 13.7676
" />
<path d="M3.7000 13.7676
L3.6333 13.8343
" />
<path d="M3.6333 13.8343
L3.5667 13.8676
" />
<path d="M4.4000 13.6676
L4.4667 13.6676
" />
<path d="M4.4667 13.6676
L4.5333 13.7009
" />
<path d="M4.5333 13.7009
L4.5667 13.7343
" />
<path d="M4.5667 13.7343
L4.6000 13.8009
" />
<path d="M4.6000 13.8009
L4.6333 13.9343
" />
<path d="M4.6333 13.9343
L4.6333 14.1009
" />
<path d="M4.6333 14.1009
L4.6000 14.2343
" />
<path d="M4.6000 14.2343
L4.5667 14.3009
" />
<path d="M4.5667 14.3009
L4.5333 14.3343
" />
<path d="M4.5333 14.3343
L4.4667 14.3676
" />
<path d="M4.4667 14.3676
L4.4000 14.3676
" />
<path d="M4.4000 14.3676
L4.3333 14.3343
" />
<path d="M4.3333 14.3343
L4.3000 14.3009
" />
<path d="M4.3000 14.3009
L4.2667 14.2343
" />
<path d="M4.2667 14.2343
L4.2333 14.1009
" />
<path d="M4.2333 14.1009
L4.2333 13.9343
" />
<path d="M4.2333 13.9343
L4.2667 13.8009
" />
<path d="M4.2667 13.8009
L4.3000 13.7343
" />
<path d="M4.3000 13.7343
L4.3333 13.7009
" />
<path d="M4.3333 13.7009
L4.4000 13.6676
" />
<path d="M5.0667 13.6676
L5.1333 13.6676
" />
<path d="M5.1333 13.6676
L5.2000 13.7009
" />
<path d="M5.2000 13.7009
L5.2333 13.7343
" />
<path d="M5.2333 13.7343
L5.2667 13.8009
" />
<path d="M5.2667 13.8009
L5.3000 13.9343
" />
<path d="M5.3000 13.9343
L5.3000 14.1009
" />
<path d="M5.3000 14.1009
L5.2667 14.2343
" />
<path d="M5.2667 14.2343
L5.2333 14.3009
" />
<path d="M5.2333 14.3009
L5.2000 14.3343
" />
<path d="M5.2000 14.3343
L5.1333 14.3676
" />
<path d="M5.1333 14.3676
L5.0667 14.3676
" />
<path d="M5.0667 14.3676
L5.0000 14.3343
" />
<path d="M5.0000 14.3343
L4.9667 14.3009
" />
<path d="M4.9667 14.3009
L4.9333 14.2343
" />
<path d="M4.9333 14.2343
L4.9000 14.1009
" />
<path d="M4.9000 14.1009
L4.9000 13.9343
" />
<path d="M4.9000 13.9343
L4.9333 13.8009
" />
<path d="M4.9333 13.8009
L4.9667 13.7343
" />
<path d="M4.9667 13.7343
L5.0000 13.7009
" />
<path d="M5.0000 13.7009
L5.0667 13.6676
" />
<path d="M5.6000 13.9009
L5.6000 14.3676
" />
<path d="M5.6000 13.9676
L5.6333 13.9343
" />
<path d="M5.6333 13.9343
L5.7000 13.9009
" />
<path d="M5.7000 13.9009
L5.8000 13.9009
" />
<path d="M5.8000 13.9009
L5.8667 13.9343
" />
<path d="M5.8667 13.9343
L5.9000 14.0009
" />
<path d="M5.9000 14.0009
L5.9000 14.3676
" />
<path d="M6.4667 14.0009
L6.2333 14.0009
" />
<path d="M6.2333 14.3676
L6.2333 13.6676
" />
<path d="M6.2333 13.6676
L6.5667 13.6676
" />
</g><text x="12.8172" y="5.4950"
textLength="1.6200" font-size="0.9333" lengthAdjust="spacingAndGlyphs"
text-anchor="middle" opacity="0" stroke-opacity="0">U1</text>
<g class="stroked-text"><desc>U1</desc>
<path d="M12.2839 4.7626
L12.2839 5.3293
" />
<path d="M12.2839 5.3293
L12.3172 5.3959
" />
<path d="M12.3172 5.3959
L12.3505 5.4293
" />
<path d="M12.3505 5.4293
L12.4172 5.4626
" />
<path d="M12.4172 5.4626
L12.5505 5.4626
" />
<path d="M12.5505 5.4626
L12.6172 5.4293
" />
<path d="M12.6172 5.4293
L12.6505 5.3959
" />
<path d="M12.6505 5.3959
L12.6839 5.3293
" />
<path d="M12.6839 5.3293
L12.6839 4.7626
" />
<path d="M13.3839 5.4626
L12.9839 5.4626
" />
<path d="M13.1839 5.4626
L13.1839 4.7626
" />
<path d="M13.1839 4.7626
L13.1172 4.8626
" />
<path d="M13.1172 4.8626
L13.0505 4.9293
" />
<path d="M13.0505 4.9293
L12.9839 4.9626
" />
</g><text x="12.9500" y="1.4000"
textLength="3.5867" font-size="0.9333" lengthAdjust="spacingAndGlyphs"
text-anchor="middle" opacity="0" stroke-opacity="0">LM393</text>
<g class="stroked-text"><desc>LM393</desc>
<path d="M11.7667 1.3676
L11.4333 1.3676
" />
<path d="M11.4333 1.3676
L11.4333 0.6676
" />
<path d="M12.0000 1.3676
L12.0000 0.6676
" />
<path d="M12.0000 0.6676
L12.2333 1.1676
" />
<path d="M12.2333 1.1676
L12.4667 0.6676
" />
<path d="M12.4667 0.6676
L12.4667 1.3676
" />
<path d="M12.7333 0.6676
L13.1667 0.6676
" />
<path d="M13.1667 0.6676
L12.9333 0.9343
" />
<path d="M12.9333 0.9343
L13.0333 0.9343
" />
<path d="M13.0333 0.9343
L13.1000 0.9676
" />
<path d="M13.1000 0.9676
L13.1333 1.0009
" />
<path d="M13.1333 1.0009
L13.1667 1.0676
" />
<path d="M13.1667 1.0676
L13.1667 1.2343
" />
<path d="M13.1667 1.2343
L13.1333 1.3009
" />
<path d="M13.1333 1.3009
L13.1000 1.3343
" />
<path d="M13.1000 1.3343
L13.0333 1.3676
" />
<path d="M13.0333 1.3676
L12.8333 1.3676
" />
<path d="M12.8333 1.3676
L12.7667 1.3343
" />
<path d="M12.7667 1.3343
L12.7333 1.3009
" />
<path d="M13.5000 1.3676
L13.6333 1.3676
" />
<path d="M13.6333 1.3676
L13.7000 1.3343
" />
<path d="M13.7000 1.3343
L13.7333 1.3009
" />
<path d="M13.7333 1.3009
L13.8000 1.2009
" />
<path d="M13.8000 1.2009
L13.8333 1.0676
" />
<path d="M13.8333 1.0676
L13.8333 0.8009
" />
<path d="M13.8333 0.8009
L13.8000 0.7343
" />
<path d="M13.8000 0.7343
L13.7667 0.7009
" />
<path d="M13.7667 0.7009
L13.7000 0.6676
" />
<path d="M13.7000 0.6676
L13.5667 0.6676
" />
<path d="M13.5667 0.6676
L13.5000 0.7009
" />
<path d="M13.5000 0.7009
L13.4667 0.7343
" />
<path d="M13.4667 0.7343
L13.4333 0.8009
" />
<path d="M13.4333 0.8009
L13.4333 0.9676
" />
<path d="M13.4333 0.9676
L13.4667 1.0343
" />
<path d="M13.4667 1.0343
L13.5000 1.0676
" />
<path d="M13.5000 1.0676
L13.5667 1.1009
" />
<path d="M13.5667 1.1009
L13.7000 1.1009
" />
<path d="M13.7000 1.1009
L13.7667 1.0676
" />
<path d="M13.7667 1.0676
L13.8000 1.0343
" />
<path d="M13.8000 1.0343
L13.8333 0.9676
" />
<path d="M14.0667 0.6676
L14.5000 0.6676
" />
<path d="M14.5000 0.6676
L14.2667 0.9343
" />
<path d="M14.2667 0.9343
L14.3667 0.9343
" />
<path d="M14.3667 0.9343
L14.4333 0.9676
" />
<path d="M14.4333 0.9676
L14.4667 1.0009
" />
<path d="M14.4667 1.0009
L14.5000 1.0676
" />
<path d="M14.5000 1.0676
L14.5000 1.2343
" />
<path d="M14.5000 1.2343
L14.4667 1.3009
" />
<path d="M14.4667 1.3009
L14.4333 1.3343
" />
<path d="M14.4333 1.3343
L14.3667 1.3676
" />
<path d="M14.3667 1.3676
L14.1667 1.3676
" />
<path d="M14.1667 1.3676
L14.1000 1.3343
" />
<path d="M14.1000 1.3343
L14.0667 1.3009
" />
</g><g transform="rotate(-90.000000 22.0500 5.0500)">
<text x="22.0500" y="5.4000"
textLength="1.5867" font-size="0.9333" lengthAdjust="spacingAndGlyphs"
text-anchor="middle" opacity="0" stroke-opacity="0">R1</text>
</g>
<g class="stroked-text"><desc>R1</desc>
<path d="M22.3676 5.1667
L22.0343 5.4000
" />
<path d="M22.3676 5.5667
L21.6676 5.5667
" />
<path d="M21.6676 5.5667
L21.6676 5.3000
" />
<path d="M21.6676 5.3000
L21.7009 5.2333
" />
<path d="M21.7009 5.2333
L21.7343 5.2000
" />
<path d="M21.7343 5.2000
L21.8009 5.1667
" />
<path d="M21.8009 5.1667
L21.9009 5.1667
" />
<path d="M21.9009 5.1667
L21.9676 5.2000
" />
<path d="M21.9676 5.2000
L22.0009 5.2333
" />
<path d="M22.0009 5.2333
L22.0343 5.3000
" />
<path d="M22.0343 5.3000
L22.0343 5.5667
" />
<path d="M22.3676 4.5000
L22.3676 4.9000
" />
<path d="M22.3676 4.7000
L21.6676 4.7000
" />
<path d="M21.6676 4.7000
L21.7676 4.7667
" />
<path d="M21.7676 4.7667
L21.8343 4.8333
" />
<path d="M21.8343 4.8333
L21.8676 4.9000
" />
</g><text x="22.0500" y="2.4000"
textLength="2.2533" font-size="0.9333" lengthAdjust="spacingAndGlyphs"
text-anchor="middle" opacity="0" stroke-opacity="0">10K</text>
<g class="stroked-text"><desc>10K</desc>
<path d="M21.5667 2.3676
L21.1667 2.3676
" />
<path d="M21.3667 2.3676
L21.3667 1.6676
" />
<path d="M21.3667 1.6676
L21.3000 1.7676
" />
<path d="M21.3000 1.7676
L21.2333 1.8343
" />
<path d="M21.2333 1.8343
L21.1667 1.8676
" />
<path d="M22.0000 1.6676
L22.0667 1.6676
" />
<path d="M22.0667 1.6676
L22.1333 1.7009
" />
<path d="M22.1333 1.7009
L22.1667 1.7343
" />
<path d="M22.1667 1.7343
L22.2000 1.8009
" />
<path d="M22.2000 1.8009
L22.2333 1.9343
" />
<path d="M22.2333 1.9343
L22.2333 2.1009
" />
<path d="M22.2333 2.1009
L22.2000 2.2343
" />
<path d="M22.2000 2.2343
L22.1667 2.3009
" />
<path d="M22.1667 2.3009
L22.1333 2.3343
" />
<path d="M22.1333 2.3343
L22.0667 2.3676
" />
<path d="M22.0667 2.3676
L22.0000 2.3676
" />
<path d="M22.0000 2.3676
L21.9333 2.3343
" />
<path d="M21.9333 2.3343
L21.9000 2.3009
" />
<path d="M21.9000 2.3009
L21.8667 2.2343
" />
<path d="M21.8667 2.2343
L21.8333 2.1009
" />
<path d="M21.8333 2.1009
L21.8333 1.9343
" />
<path d="M21.8333 1.9343
L21.8667 1.8009
" />
<path d="M21.8667 1.8009
L21.9000 1.7343
" />
<path d="M21.9000 1.7343
L21.9333 1.7009
" />
<path d="M21.9333 1.7009
L22.0000 1.6676
" />
<path d="M22.5333 2.3676
L22.5333 1.6676
" />
<path d="M22.9333 2.3676
L22.6333 1.9676
" />
<path d="M22.9333 1.6676
L22.5333 2.0676
" />
</g><g transform="rotate(-90.000000 3.0500 8.0500)">
<text x="3.0500" y="8.4000"
textLength="1.5867" font-size="0.9333" lengthAdjust="spacingAndGlyphs"
text-anchor="middle" opacity="0" stroke-opacity="0">R3</text>
</g>
<g class="stroked-text"><desc>R3</desc>
<path d="M3.3676 8.1667
L3.0343 8.4000
" />
<path d="M3.3676 8.5667
L2.6676 8.5667
" />
<path d="M2.6676 8.5667
L2.6676 8.3000
" />
<path d="M2.6676 8.3000
L2.7009 8.2333
" />
<path d="M2.7009 8.2333
L2.7343 8.2000
" />
<path d="M2.7343 8.2000
L2.8009 8.1667
" />
<path d="M2.8009 8.1667
L2.9009 8.1667
" />
<path d="M2.9009 8.1667
L2.9676 8.2000
" />
<path d="M2.9676 8.2000
L3.0009 8.2333
" />
<path d="M3.0009 8.2333
L3.0343 8.3000
" />
<path d="M3.0343 8.3000
L3.0343 8.5667
" />
<path d="M2.6676 7.9333
L2.6676 7.5000
" />
<path d="M2.6676 7.5000
L2.9343 7.7333
" />
<path d="M2.9343 7.7333
L2.9343 7.6333
" />
<path d="M2.9343 7.6333
L2.9676 7.5667
" />
<path d="M2.9676 7.5667
L3.0009 7.5333
" />
<path d="M3.0009 7.5333
L3.0676 7.5000
" />
<path d="M3.0676 7.5000
L3.2343 7.5000
" />
<path d="M3.2343 7.5000
L3.3009 7.5333
" />
<path d="M3.3009 7.5333
L3.3343 7.5667
" />
<path d="M3.3343 7.5667
L3.3676 7.6333
" />
<path d="M3.3676 7.6333
L3.3676 7.8333
" />
<path d="M3.3676 7.8333
L3.3343 7.9000
" />
<path d="M3.3343 7.9000
L3.3009 7.9333
" />
</g><text x="3.0500" y="4.4000"
textLength="5.1533" font-size="0.9333" lengthAdjust="spacingAndGlyphs"
text-anchor="middle" opacity="0" stroke-opacity="0">4K-200K</text>
<g class="stroked-text"><desc>4K-200K</desc>
<path d="M1.0500 3.9009
L1.0500 4.3676
" />
<path d="M0.8833 3.6343
L0.7167 4.1343
" />
<path d="M0.7167 4.1343
L1.1500 4.1343
" />
<path d="M1.4167 4.3676
L1.4167 3.6676
" />
<path d="M1.8167 4.3676
L1.5167 3.9676
" />
<path d="M1.8167 3.6676
L1.4167 4.0676
" />
<path d="M2.1167 4.1009
L2.6500 4.1009
" />
<path d="M2.9500 3.7343
L2.9833 3.7009
" />
<path d="M2.9833 3.7009
L3.0500 3.6676
" />
<path d="M3.0500 3.6676
L3.2167 3.6676
" />
<path d="M3.2167 3.6676
L3.2833 3.7009
" />
<path d="M3.2833 3.7009
L3.3167 3.7343
" />
<path d="M3.3167 3.7343
L3.3500 3.8009
" />
<path d="M3.3500 3.8009
L3.3500 3.8676
" />
<path d="M3.3500 3.8676
L3.3167 3.9676
" />
<path d="M3.3167 3.9676
L2.9167 4.3676
" />
<path d="M2.9167 4.3676
L3.3500 4.3676
" />
<path d="M3.7833 3.6676
L3.8500 3.6676
" />
<path d="M3.8500 3.6676
L3.9167 3.7009
" />
<path d="M3.9167 3.7009
L3.9500 3.7343
" />
<path d="M3.9500 3.7343
L3.9833 3.8009
" />
<path d="M3.9833 3.8009
L4.0167 3.9343
" />
<path d="M4.0167 3.9343
L4.0167 4.1009
" />
<path d="M4.0167 4.1009
L3.9833 4.2343
" />
<path d="M3.9833 4.2343
L3.9500 4.3009
" />
<path d="M3.9500 4.3009
L3.9167 4.3343
" />
<path d="M3.9167 4.3343
L3.8500 4.3676
" />
<path d="M3.8500 4.3676
L3.7833 4.3676
" />
<path d="M3.7833 4.3676
L3.7167 4.3343
" />
<path d="M3.7167 4.3343
L3.6833 4.3009
" />
<path d="M3.6833 4.3009
L3.6500 4.2343
" />
<path d="M3.6500 4.2343
L3.6167 4.1009
" />
<path d="M3.6167 4.1009
L3.6167 3.9343
" />
<path d="M3.6167 3.9343
L3.6500 3.8009
" />
<path d="M3.6500 3.8009
L3.6833 3.7343
" />
<path d="M3.6833 3.7343
L3.7167 3.7009
" />
<path d="M3.7167 3.7009
L3.7833 3.6676
" />
<path d="M4.4500 3.6676
L4.5167 3.6676
" />
<path d="M4.5167 3.6676
L4.5833 3.7009
" />
<path d="M4.5833 3.7009
L4.6167 3.7343
" />
<path d="M4.6167 3.7343
L4.6500 3.8009
" />
<path d="M4.6500 3.8009
L4.6833 3.9343
" />
<path d="M4.6833 3.9343
L4.6833 4.1009
" />
<path d="M4.6833 4.1009
L4.6500 4.2343
" />
<path d="M4.6500 4.2343
L4.6167 4.3009
" />
<path d="M4.6167 4.3009
L4.5833 4.3343
" />
<path d="M4.5833 4.3343
L4.5167 4.3676
" />
<path d="M4.5167 4.3676
L4.4500 4.3676
" />
<path d="M4.4500 4.3676
L4.3833 4.3343
" />
<path d="M4.3833 4.3343
L4.3500 4.3009
" />
<path d="M4.3500 4.3009
L4.3167 4.2343
" />
<path d="M4.3167 4.2343
L4.2833 4.1009
" />
<path d="M4.2833 4.1009
L4.2833 3.9343
" />
<path d="M4.2833 3.9343
L4.3167 3.8009
" />
<path d="M4.3167 3.8009
L4.3500 3.7343
" />
<path d="M4.3500 3.7343
L4.3833 3.7009
" />
<path d="M4.3833 3.7009
L4.4500 3.6676
" />
<path d="M4.9833 4.3676
L4.9833 3.6676
" />
<path d="M5.3833 4.3676
L5.0833 3.9676
" />
<path d="M5.3833 3.6676
L4.9833 4.0676
" />
</g><g transform="rotate(-180.000000 13.1000 11.7500)">
<text x="13.1000" y="12.1000"
textLength="2.1867" font-size="0.9333" lengthAdjust="spacingAndGlyphs"
text-anchor="middle" opacity="0" stroke-opacity="0">RV1</text>
</g>
<g class="stroked-text"><desc>RV1</desc>
<path d="M13.5167 11.4324
L13.7500 11.7657
" />
<path d="M13.9167 11.4324
L13.9167 12.1324
" />
<path d="M13.9167 12.1324
L13.6500 12.1324
" />
<path d="M13.6500 12.1324
L13.5833 12.0991
" />
<path d="M13.5833 12.0991
L13.5500 12.0657
" />
<path d="M13.5500 12.0657
L13.5167 11.9991
" />
<path d="M13.5167 11.9991
L13.5167 11.8991
" />
<path d="M13.5167 11.8991
L13.5500 11.8324
" />
<path d="M13.5500 11.8324
L13.5833 11.7991
" />
<path d="M13.5833 11.7991
L13.6500 11.7657
" />
<path d="M13.6500 11.7657
L13.9167 11.7657
" />
<path d="M13.3167 12.1324
L13.0833 11.4324
" />
<path d="M13.0833 11.4324
L12.8500 12.1324
" />
<path d="M12.2500 11.4324
L12.6500 11.4324
" />
<path d="M12.4500 11.4324
L12.4500 12.1324
" />
<path d="M12.4500 12.1324
L12.5167 12.0324
" />
<path d="M12.5167 12.0324
L12.5833 11.9657
" />
<path d="M12.5833 11.9657
L12.6500 11.9324
" />
</g><text x="8.0500" y="16.4000"
textLength="2.9200" font-size="0.9333" lengthAdjust="spacingAndGlyphs"
text-anchor="middle" opacity="0" stroke-opacity="0">100K</text>
<g class="stroked-text"><desc>100K</desc>
<path d="M7.2333 16.3676
L6.8333 16.3676
" />
<path d="M7.0333 16.3676
L7.0333 15.6676
" />
<path d="M7.0333 15.6676
L6.9667 15.7676
" />
<path d="M6.9667 15.7676
L6.9000 15.8343
" />
<path d="M6.9000 15.8343
L6.8333 15.8676
" />
<path d="M7.6667 15.6676
L7.7333 15.6676
" />
<path d="M7.7333 15.6676
L7.8000 15.7009
" />
<path d="M7.8000 15.7009
L7.8333 15.7343
" />
<path d="M7.8333 15.7343
L7.8667 15.8009
" />
<path d="M7.8667 15.8009
L7.9000 15.9343
" />
<path d="M7.9000 15.9343
L7.9000 16.1009
" />
<path d="M7.9000 16.1009
L7.8667 16.2343
" />
<path d="M7.8667 16.2343
L7.8333 16.3009
" />
<path d="M7.8333 16.3009
L7.8000 16.3343
" />
<path d="M7.8000 16.3343
L7.7333 16.3676
" />
<path d="M7.7333 16.3676
L7.6667 16.3676
" />
<path d="M7.6667 16.3676
L7.6000 16.3343
" />
<path d="M7.6000 16.3343
L7.5667 16.3009
" />
<path d="M7.5667 16.3009
L7.5333 16.2343
" />
<path d="M7.5333 16.2343
L7.5000 16.1009
" />
<path d="M7.5000 16.1009
L7.5000 15.9343
" />
<path d="M7.5000 15.9343
L7.5333 15.8009
" />
<path d="M7.5333 15.8009
L7.5667 15.7343
" />
<path d="M7.5667 15.7343
L7.6000 15.7009
" />
<path d="M7.6000 15.7009
L7.6667 15.6676
" />
<path d="M8.3333 15.6676
L8.4000 15.6676
" />
<path d="M8.4000 15.6676
L8.4667 15.7009
" />
<path d="M8.4667 15.7009
L8.5000 15.7343
" />
<path d="M8.5000 15.7343
L8.5333 15.8009
" />
<path d="M8.5333 15.8009
L8.5667 15.9343
" />
<path d="M8.5667 15.9343
L8.5667 16.1009
" />
<path d="M8.5667 16.1009
L8.5333 16.2343
" />
<path d="M8.5333 16.2343
L8.5000 16.3009
" />
<path d="M8.5000 16.3009
L8.4667 16.3343
" />
<path d="M8.4667 16.3343
L8.4000 16.3676
" />
<path d="M8.4000 16.3676
L8.3333 16.3676
" />
<path d="M8.3333 16.3676
L8.2667 16.3343
" />
<path d="M8.2667 16.3343
L8.2333 16.3009
" />
<path d="M8.2333 16.3009
L8.2000 16.2343
" />
<path d="M8.2000 16.2343
L8.1667 16.1009
" />
<path d="M8.1667 16.1009
L8.1667 15.9343
" />
<path d="M8.1667 15.9343
L8.2000 15.8009
" />
<path d="M8.2000 15.8009
L8.2333 15.7343
" />
<path d="M8.2333 15.7343
L8.2667 15.7009
" />
<path d="M8.2667 15.7009
L8.3333 15.6676
" />
<path d="M8.8667 16.3676
L8.8667 15.6676
" />
<path d="M9.2667 16.3676
L8.9667 15.9676
" />
<path d="M9.2667 15.6676
L8.8667 16.0676
" />
</g><g transform="rotate(-90.000000 22.0500 10.0500)">
<text x="22.0500" y="10.4000"
textLength="2.7867" font-size="0.9333" lengthAdjust="spacingAndGlyphs"
text-anchor="middle" opacity="0" stroke-opacity="0">LED1</text>
</g>
<g class="stroked-text"><desc>LED1</desc>
<path d="M22.3676 10.8333
L22.3676 11.1667
" />
<path d="M22.3676 11.1667
L21.6676 11.1667
" />
<path d="M22.0009 10.6000
L22.0009 10.3667
" />
<path d="M22.3676 10.2667
L22.3676 10.6000
" />
<path d="M22.3676 10.6000
L21.6676 10.6000
" />
<path d="M21.6676 10.6000
L21.6676 10.2667
" />
<path d="M22.3676 9.9667
L21.6676 9.9667
" />
<path d="M21.6676 9.9667
L21.6676 9.8000
" />
<path d="M21.6676 9.8000
L21.7009 9.7000
" />
<path d="M21.7009 9.7000
L21.7676 9.6333
" />
<path d="M21.7676 9.6333
L21.8343 9.6000
" />
<path d="M21.8343 9.6000
L21.9676 9.5667
" />
<path d="M21.9676 9.5667
L22.0676 9.5667
" />
<path d="M22.0676 9.5667
L22.2009 9.6000
" />
<path d="M22.2009 9.6000
L22.2676 9.6333
" />
<path d="M22.2676 9.6333
L22.3343 9.7000
" />
<path d="M22.3343 9.7000
L22.3676 9.8000
" />
<path d="M22.3676 9.8000
L22.3676 9.9667
" />
<path d="M22.3676 8.9000
L22.3676 9.3000
" />
<path d="M22.3676 9.1000
L21.6676 9.1000
" />
<path d="M21.6676 9.1000
L21.7676 9.1667
" />
<path d="M21.7676 9.1667
L21.8343 9.2333
" />
<path d="M21.8343 9.2333
L21.8676 9.3000
" />
</g><text x="22.0500" y="13.4000"
textLength="1.8867" font-size="0.9333" lengthAdjust="spacingAndGlyphs"
text-anchor="middle" opacity="0" stroke-opacity="0">red</text>
<g class="stroked-text"><desc>red</desc>
<path d="M21.3833 13.3676
L21.3833 12.9009
" />
<path d="M21.3833 13.0343
L21.4167 12.9676
" />
<path d="M21.4167 12.9676
L21.4500 12.9343
" />
<path d="M21.4500 12.9343
L21.5167 12.9009
" />
<path d="M21.5167 12.9009
L21.5833 12.9009
" />
<path d="M22.0833 13.3343
L22.0167 13.3676
" />
<path d="M22.0167 13.3676
L21.8833 13.3676
" />
<path d="M21.8833 13.3676
L21.8167 13.3343
" />
<path d="M21.8167 13.3343
L21.7833 13.2676
" />
<path d="M21.7833 13.2676
L21.7833 13.0009
" />
<path d="M21.7833 13.0009
L21.8167 12.9343
" />
<path d="M21.8167 12.9343
L21.8833 12.9009
" />
<path d="M21.8833 12.9009
L22.0167 12.9009
" />
<path d="M22.0167 12.9009
L22.0833 12.9343
" />
<path d="M22.0833 12.9343
L22.1167 13.0009
" />
<path d="M22.1167 13.0009
L22.1167 13.0676
" />
<path d="M22.1167 13.0676
L21.7833 13.1343
" />
<path d="M22.7167 13.3676
L22.7167 12.6676
" />
<path d="M22.7167 13.3343
L22.6500 13.3676
" />
<path d="M22.6500 13.3676
L22.5167 13.3676
" />
<path d="M22.5167 13.3676
L22.4500 13.3343
" />
<path d="M22.4500 13.3343
L22.4167 13.3009
" />
<path d="M22.4167 13.3009
L22.3833 13.2343
" />
<path d="M22.3833 13.2343
L22.3833 13.0343
" />
<path d="M22.3833 13.0343
L22.4167 12.9676
" />
<path d="M22.4167 12.9676
L22.4500 12.9343
" />
<path d="M22.4500 12.9343
L22.5167 12.9009
" />
<path d="M22.5167 12.9009
L22.6500 12.9009
" />
<path d="M22.6500 12.9009
L22.7167 12.9343
" />
</g><path d="M5.8500 2.7500
L5.8500 7.3500
" />
<path d="M5.8500 7.3500
L8.2500 7.3500
" />
<path d="M8.2500 2.7500
L5.8500 2.7500
" />
<path d="M8.2500 7.3500
L8.2500 2.7500
" />
<path d="M17.8500 2.9500
L17.8500 7.1500
" />
<path d="M20.2500 7.1500
L20.2500 2.9500
" />
<path d="M20.2500 2.9500 A1.9010 1.9010 0.0 0 0 17.8500 2.9500" />
<path d="M17.8500 7.1500 A1.8501 1.8501 0.0 0 0 20.2500 7.1500" />
<path d="M5.8500 7.9500
L5.8500 12.1500
" />
<path d="M8.2500 12.1500
L8.2500 7.9500
" />
<path d="M8.2500 7.9500 A1.9010 1.9010 0.0 0 0 5.8500 7.9500" />
<path d="M5.8500 12.1500 A1.8501 1.8501 0.0 0 0 8.2500 12.1500" />
</g>
<g style="fill:none; 
stroke:#F2EDA1; stroke-width:0.1500; stroke-opacity:1; 
stroke-linecap:round; stroke-linejoin:round;">
<path d="M8.8844 2.7828
L9.1130 3.0114
" />
<path d="M8.8844 3.2146
L8.8844 2.8082
" />
<path d="M9.1130 3.0114
L8.8844 3.2146
" />
<path d="M10.9750 2.5700
L10.9750 2.6850
" />
<path d="M10.9750 2.5700
L15.1250 2.5700
" />
<path d="M10.9750 2.6850
L9.5750 2.6850
" />
<path d="M10.9750 7.7200
L10.9750 7.6050
" />
<path d="M10.9750 7.7200
L15.1250 7.7200
" />
<path d="M15.1250 2.5700
L15.1250 2.6850
" />
<path d="M15.1250 7.7200
L15.1250 7.6050
" />
<circle cx="11.8816" cy="3.2146" r="0.2615" /> 
</g>
<g style="fill:none; 
stroke:#F2EDA1; stroke-width:0.1200; stroke-opacity:1; 
stroke-linecap:round; stroke-linejoin:round;">
<path d="M20.8500 2.7500
L20.8500 7.3500
" />
<path d="M20.8500 7.3500
L23.2500 7.3500
" />
<path d="M23.2500 2.7500
L20.8500 2.7500
" />
<path d="M23.2500 7.3500
L23.2500 2.7500
" />
<path d="M24.6700 11.8600
L24.6700 4.1300
" />
<path d="M27.4300 4.1300
L24.6700 4.1300
" />
<path d="M27.4300 11.8600
L24.6700 11.8600
" />
<path d="M27.4300 11.8600
L27.4300 4.1300
" />
<path d="M27.4300 13.1300
L27.4300 14.5100
" />
<path d="M27.4300 14.5100
L26.0500 14.5100
" />
<path d="M0.9500 6.6500
L0.9500 9.4500
" />
<path d="M5.1500 6.6500
L5.1500 9.4500
" />
<path d="M5.1592 6.6640 A2.5239 2.5239 0.0 0 0 0.9500 6.6500" />
<path d="M0.9408 9.4360 A2.5239 2.5239 0.0 0 0 5.1500 9.4500" />
<path d="M9.7700 12.9500
L9.7700 9.5800
" />
<path d="M9.7700 15.4500
L9.7700 15.2500
" />
<path d="M11.0800 8.2700
L11.9500 8.2700
" />
<path d="M14.2500 8.2700
L15.0800 8.2700
" />
<path d="M16.3900 9.5800
L16.3900 12.9500
" />
<path d="M16.3900 15.4500
L9.7700 15.4500
" />
<path d="M16.3900 15.4500
L16.3900 15.2500
" />
<path d="M11.0800 8.2700 A1.3100 1.3100 0.0 0 0 9.7700 9.5800" />
<path d="M16.3900 9.5800 A1.3100 1.3100 0.0 0 0 15.0800 8.2700" />
<path style="fill:#F2EDA1; fill-opacity:1.0000; 
stroke:#F2EDA1; stroke-width:0.1200; stroke-opacity:1; 
stroke-linecap:round; stroke-linejoin:round;fill-rule:evenodd;"
d="M 20.4500,11.8500
20.8500,11.8500
20.8500,10.8500
20.4500,10.8500
Z" /> 
<path style="fill:none; 
stroke:#F2EDA1; stroke-width:0.1200; stroke-opacity:1; 
stroke-linecap:round; stroke-linejoin:round;fill:none"
d="M 20.8500,12.3500
23.2500,12.3500
23.2500,7.7500
20.8500,7.7500
Z" /> 
<path style="fill:#F2EDA1; fill-opacity:1.0000; 
stroke:#F2EDA1; stroke-width:0.1200; stroke-opacity:1; 
stroke-linecap:round; stroke-linejoin:round;fill-rule:evenodd;"
d="M 23.2500,11.8500
23.6500,11.8500
23.6500,10.8500
23.2500,10.8500
Z" /> 
</g> 
</svg>
